<svg xmlns="http://www.w3.org/2000/svg" style="transform-origin:50% 50%;transition:none 0s ease 0s" width="520" height="520" cursor="move" transform="translate(-9 -7)" viewBox="0 0 5570 5570">
  <defs/>
  <path fill="none" stroke="#000" stroke-width="5" d="M2788.6 361.4c-3.7 5-4.5 7.4-1.5 12.9l1.5-1.4c9.3-46.4 50.8-36.6 85.7-38.6l1.4 1.4h-8.6m8.6 0c14.2 2.5 48.6 22.8 37.2 40l1.4 2.9 1.4 1.4h1.4l1.5-1.4v-4.3m-45.7-34.3c14.3 10.4 28.5 19.2 38.5 34.3m-127.1-7.2l4.3 4.3m-7.2 1.5v7.1l1.5 1.4 4.2-4.3v-2.8m131.5 7.1c3.7 14.3 14.3 22.4 28.5 25.7l1.5 1.5-4.3 4.3c3.6.5 8.6-.7 4.3-4.3m-165.7-25.7a48.7 48.7 0 01-28.6 30l-1.4-4.3 10-1.5m157.1-12.8l1.4 5.7 4.3-4.3m-4.3 5.7l22.9 11.5M2747 410l-34.2 10 1.4 4.3 35.7-10-2.9-4.3 1.5-1.4h4.3m4.2 0v1.4m195.8 0c9.9 1.6 18.5 7.8 28.5 10.2 43.3 10.2 85.7 23.7 128.6 35.3 95.3 25.8 194 48.1 287.1 80.7 10.7 3.8 19.1 11.8 30 15.7a851.5 851.5 0 00128.6 33.3c18.6 3.4 44.3 12.3 62.9 7.7l1.4-1.5c-4-2.5-7.4-4.1-8.6 1.5m-652.8-181.5l-1.5 4.3 7.2-1.4m-227.2-1.4l4.3 4.2m2.9-4.2v1.4m5.7 0h2.9m-25.8 1.4l4.3 4.3m2.9-4.3v1.4m217.1-1.4h5.7m-232.8 2.9v1.4m-11.4 5.7l-5.8-4.3 1.5-1.4h4.3m5.7 0v1.4m-11.5 5.7h-4.2l4.2-5.7m-5.7 7.2l-5.7-2.9 7.2-2.8M2210 560l-5.7 1.4 1.4 4.3 142.9-42 230-65 117.1-31.6m87.2 17.2c-10.3 21.9-40.2 39.1-58.6 54A3328.5 3328.5 0 002605.7 600c-13.6 12-27.6 23.7-41.4 35.6-5.9 5-12.4 13-20 15.1-18.4 5-43.8.6-62.9.6-50 0-101.4-3.3-151.4.2-39.8 2.7-80.3-.9-120 3-14 1.3-40.2 7.3-51.4-1.7 47.7-22.4 101.3-36 151.4-52 99.4-31.7 199.5-63.2 297.1-100 40.8-15.5 79.7-33.1 121.5-46.1 15-4.7 38.6-14.5 54.3-10.5m772.8 211.4c-12 8-31.7 4.3-45.7 4.3-37.7 0-75.2-2.9-112.9-2.9-54.7 0-109.5-4.1-164.2-4.2-17.3 0-34.3-1.5-51.5-1.5-8.1 0-19.6 2-27.1-1.4-16.3-7.4-31-26.4-44.3-38.3a2171.4 2171.4 0 00-94.3-81.4c-23.5-18.9-47.6-37-71.4-55.5-10.8-8.4-27-18-32.9-30.5 15.2-4.5 36.9 3.7 51.5 8.6 40.6 13.4 81.1 32.1 121.4 47.4 97.5 37 198.4 69.8 298.6 99 57.4 16.9 123.8 26.6 175.7 57.8m-462.9-7.1l-48.6 1.4h-405.7l-37.1-1.4c5.2-10.4 17.3-18 25.7-25.8 19-17.7 38.4-35 57.1-52.8 19.9-19 39.8-38.5 58.5-58.5 12-13 23.7-28.1 38.7-37.8 16.2-10.6 38.4-10.8 57.1-10.8 21.2 0 47.4-2.3 67.2 6.5 20.3 9 35.7 31.7 50.2 47.8 19.2 21.2 41 39.9 61.2 60 16.9 16.8 35.2 32.4 52.9 48.3 7.6 7 18.1 13.8 22.8 23.1m311.4-111.4h5.8l1.4 1.4-1.4 1.4-2.9 2.9m4.3-4.3c66 8.9 129 41.8 195.7 47.1m-1815.7 97.2l-5.7 2.8-1.5-4.2 1.5-1.5c18.5 2 36.2-7 54.3-12.2 41.7-12.2 84-25.4 124.2-42 19.8-8.3 37.9-25 60-24.3l1.5-1.5-2.9-4.3 1.4-1.4c9.6-1.2 19-3.6 28.6-2.8 10.6 1 18.7 4.9 30 4.1a347.4 347.4 0 00115.7-29.9l-2.8-4.2 1.4-1.5h4.3m-7.2 7.2l-4.2-4.3 5.7-1.4m-170 38.5l42.8-10 121.5-27.1m8.5 2.8h2.9M3621.4 593l50 3 40 20.9 41.5 16-2.9 4.3 1.4 1.5h2.9l1.4-4.3h2.9l1.4 1.4-2.9 4.3 1.5 1.4h1.4v-5.7M2020 600l5.7-2.9m148.6 18.6c-11.5 8.8-32.8 17.1-47.2 12.9 6.7-11.8 35.5-19.1 47.2-12.9m1400 11.4c-11.8 6.3-40.4-1-47.2-12.8 14.3-4.2 35.8 4 47.2 12.8m167.1 4.3c3.5 2.2 4.6 3.3 7.2 0m5.7 1.5l1.4 1.4m-7.1 2.8h1.4m14.3 0l1.4 5.8 1.4 1.4h1.5l1.4-5.7m-14.3 1.4h1.4m14.3 0l1.5 5.7 1.4 1.4h1.4v-5.7M3763 643h2.8m14.3 0l18.6 7.1-1.5 1.4-1.4 1.5h-1.4l-1.4-5.8m-8.6-2.8l-1.4 4.3 5.7-2.9m-18.6 0h2.9m5.7 2.9h4.3m5.7 2.8h2.8m-1640 5.7h4.3l2.9-4.2m1641.4 0l111.4 28.5 1.5 1.5-2.9 4.2 1.4 1.5h1.5l5.7-4.3-5.7-1.4M2157 658.6h4.3m-365.7 22.8l7.2-2.8m2100 1.4l-1.5 4.3 5.7-2.9m-10 0l4.3 2.9m-2387.1 120c3 5.1 2.1 6.8-1.4 11.4l-4.3-4.3 14.3-18.5 4.2 4.2c17.8-23.2 7.6-47.2 15-72.8 8.5-29.1 45.4-40.7 72.2-41.4l1.4 1.4-2.8 4.3 1.4 1.4 8.6-4.3-1.5-1.4h-5.7m171.4 4.3l-5.7-4.3 1.5-1.4H1787m2268.6 18.5l-7.1-2.8-1.5 1.4 1.5 1.4c8.5 1.3 21.8-12.6 31.4-15.6 29.3-9.2 78.1 9.7 77.1 45.6l1.5 1.5 4.3-4.3-2.9-4.3M1781.4 690l-4.3-4.3 1.5-1.4h2.8M3207.1 697c9.8-4 19.8-2.2 30-3a1586 1586 0 0170-2.7c62.4-1.5 124.8-7.1 187.2-7.1 21.4 0 43-.6 64.3 2.5 7 1 19.8 2.5 20.6 11.8 1 11-15 22.3-22 28.6a515.2 515.2 0 01-81.5 58.6c-22.8 14-42.9 32.3-64.3 48.3-6.9 5.2-18 16-27.1 16-14-.1-35.5-25-45.7-33.6a2528 2528 0 01-94.3-82c-12-11-30.2-22.5-37.2-37.4m711.5-12.8v5.7c29.5 13.1 66.5 24 98.5 28.2 13.1 1.6 29-4 34.3-16.8m-2447.1-15.7l8.6 2.9m10-2.9v5.7l1.4 1.5c3.1-1.6 5.8-2.9 2.8-5.8m10 11.5l2.9-5.7h1.4l1.5 1.4-4.3 4.3c8.9 6 17.7 15.6 28.5 18 34.3 7.5 72.5-18.8 105.8-23.7l1.4-1.5-2.9-4.3 5.7-1.4m2145.8 0c37.2 5 86.6 34.7 122.8 14.3m-2278.6-8.6l-1.4-2.8 5.7-1.5m428.6.6c18-2.3 36.2.9 54.3.9 52 0 103.8 2.8 155.7 2.8 18 0 37.9-.3 55.7 2 4.5.6 14.2-.8 17.6 2.4 4 3.6-2.5 10.2-4.9 12.8a407 407 0 01-28.4 28.8c-30.6 27.7-60.9 55.6-92.9 81.8-10.6 8.7-26 25.7-40 28.2-13.8 2.4-35.4-17.4-45.7-25-37.2-27.9-73.1-57.4-111.4-83.8-11-7.6-23.2-14.9-32.6-24.6-3.4-3.4-8.7-9.8-5.9-15 3.3-6 13.9-7.4 20-8.4 19.4-3 39-.3 58.5-2.9m1707.1-.6h2.9m-2277.1 1.5l-2.9 5.7 1.4 1.4 4.3-5.7m127.2 2.9l2.8-4.3m-5.7 7.1l-4.3-4.3 5.7-1.4m2154.3 0h2.9M1620 691.4h2.9m15.7 0l1.4 1.5m114.3 4.2l-4.3-4.2 5.7-1.5m18.6 0h2.8m777.2 1.4c10.7-4.7 28.4-1.4 40-1.4h508.6c11.8 0 32-3.9 42.8 1.5 17.6 8.8 33.9 29.5 48.6 42.6 35.4 31.6 70 64.3 105.7 95.3 12.7 11 25.2 23 37.1 35 3.7 3.5 10.3 8.6 10.4 14.2.2 10-22 23.6-29 29.4-22.3 18.7-45.4 36.5-68.5 54.4-10.6 8.2-21 19.3-32.9 25.6-13 6.9-38.3 2-52.8 2H2537c-15 0-37 4.1-51.4-.8-12-4.2-24.3-17.8-34.3-25.7-23.3-18.6-47-36.7-70-55.7-6.8-5.8-29.1-19.5-28.9-29.2.1-5.7 6.7-10.6 10.4-14.3 11.2-11.3 22.8-22 34.2-32.9 34-32.4 69.6-62.8 104.3-94.3 15.3-13.9 34-37.6 52.9-45.7m-910 1.5c35.1 23.2 68.4 3.6 105.7-1.4m-121.4 1.4h1.4m2422.9 2.8l5.7-1.4m-2424.3 1.4h1.4m321.4 7.8c8.4-1.1 13.8 2.9 6.9 10.4-8 8.6-18.7 15.2-28.3 21.8-28.6 19.7-58.7 37.2-88.6 54.9-15 8.9-32.4 21.8-50 24.7-11.6 1.9-22.5-5.4-32.8-9.8-20.9-8.9-42.3-16.4-62.9-26-6.2-2.8-29.4-11.8-19.5-21.4 15.7-15.3 56.2-12.4 76.7-15.8 66.2-11.1 132.1-29.7 198.5-38.8m1770 .8h11.5l1.4 1.4-4.3 4.3a359.6 359.6 0 0058.6 45c10.5 6.3 22.3 9.7 32.8 16.2 22.3 13.6 45.9 38.5 72.9 41.4 14.7 1.6 29.2-3.4 42.9-8.4a439.8 439.8 0 0062.8-28.3c4.7-2.6 18.7-8.6 16.7-15.7-1.7-5.7-11.9-7-16.7-8.1-16.5-3.7-33.3-6-50-8.4-42.2-6.2-83.9-12.2-125.7-20.5-29.5-6-60-15-90-17.5m-7.1 0l1.4 4.3M1540 735.7c-2.4-4-3-5 0-8.6m2622.9 2.9c7.4 12.1 9.5 33 0 44.3l-4.3-41.4m-2171.5-.6c19-3.2 8.6 23.8 5.1 32a476.2 476.2 0 01-45.1 82.8c-5.2 7.5-13 22-22.8 23.4-16.5 2.6-46-16.3-60-24.2-3.7-2-17.2-7-15.2-13 2.4-7 24.7-18.3 30.9-23.7 23-20.3 46.3-39.6 71.4-57.4 10.2-7.2 23.1-17.8 35.7-20m1717.6.7c9-5.6 25.6 8.7 32.4 13.3a920.8 920.8 0 0184.3 66.3c6 5.1 33.2 22.1 22.7 30.4-14.2 11.2-34.6 16.2-51.2 22.5-6 2.3-15 7-21.4 4.2-6.9-3-11.8-12.2-15.8-18.2a631.4 631.4 0 01-27.3-45.7 307.6 307.6 0 01-24.6-52.8c-1.7-5.3-5.1-16.1 1-20m-2170.5 1.4c-5.7 20.3 1.6 38.8-11.4 57.1m564.2-52c21.2-1 40.5 15.5 55.8 28.1 33.6 28.1 63.4 60.6 98.5 87 12 9 25.4 16.2 37.2 25.5 3.7 3 10.4 7.3 10 12.9-1.1 11-23.2 25-31.5 31.2-13.8 10.5-29.4 21.5-47.1 24-13.3 2-26.5-2.3-40 .5-15.2 3-28.8 13.2-44.3 14.1-14.8 1-31-6.8-44.3-12.5-25-10.6-50-21.3-74.3-33.4-11.3-5.7-28.3-12.6-33.2-25.4-5.6-14.8 9.2-37.5 13.7-51.4 9.4-29.2 18.8-71.2 47-90.1 5-3.5 11.1-1.4 16.8-2.2 12.2-1.6 23.5-7.7 35.7-8.3m1522.9 0c9.4-.8 18.3 3.8 27.1 6 8.4 2.3 21.7-.8 28.6 3 29.7 16 34.5 64 43.8 91.6 4.4 13 21 39 17.7 52.5-2 8.8-25.5 16-33 20.2-26.3 14.6-53 28.5-80 42-9.3 4.6-23.6 14.7-34.2 14.7-16 0-30.2-19.6-45.7-23.8-16.6-4.5-28.6 7.6-44.3 7-22-.7-46.8-26.7-61.4-41.2-5.8-5.8-13.7-12.6-14.1-21.4-1-22.5 34.4-29.1 48.4-39.2 33.8-24.3 61.9-56.5 94.2-82.8 15.2-12.3 32.6-27.2 52.9-28.7m558.6 32.1l-4.3 8.6v1.4l1.4 1.5 4.3-4.3m-7.1-4.3l1.4 4.3m7.1 4.3l-4.3 4.2 1.5 1.5 2.8-4.3m-1.4 7.1l1.4 1.5 4.3-2.9-5.7 1.4m5.7 0c7.8 10 13.7 21.9 21.9 31.5 41.3 48.3 90 91 135.3 135.7 83 82.1 167.3 163 250 245.7 34.5 34.5 69.7 68.3 104.2 102.8 10.3 10.3 26.6 34.3 41.5 35.8l1.4 1.4-1.4 1.4-1.5 1.4-2.8-2.8m-552.9-550h5.7m-2650 4.3l-8.5 10m2655.7-10l15.7 15.7m-2755.7 260c-2.5-10.2 5.6-20 10.3-28.6a1000 1000 0 0142-68.6c17.6-26.8 36-54 50.4-82.8 11.5-23.3 22.1-51 45.9-65.2 13.4-8 26.9-5.8 41.4-9.3 12.1-2.9 21.3-12 32.8-14.8 17.5-4.1 41.6 7.9 57.2 14.6 10 4.3 20.6 8.5 30 14.1 3.2 2 9.3 4.7 8.7 9.3-1.1 8.5-18.2 18.3-24.4 23.3A1850 1850 0 011650 925c-28 20-55.8 40-84.3 59.2-44.1 29.5-87.4 60.3-131.4 90m2837.1 4.3c-33-25.5-69.8-47-104.3-70.5-48.3-32.9-95.7-67-144.2-99.5-21.6-14.5-43.2-29-64.3-44.1-4.9-3.5-19.3-9.7-20.1-16.2-1.6-11.1 29.4-20.7 37.2-24 18.9-8.1 43.1-21.3 64.3-18.2 12.3 1.9 23.4 10 35.7 13 9.9 2.3 20.6 1.7 30 5.7 38.6 16 47.6 52.7 66.1 85.2 22 38.5 47 75.3 70.5 112.9 11.9 19 22 40.3 34.8 58.5M1510 815.7l-5.7 10-4.3-4.3 8.6-7.1m-7.2 8.6l-8.5 15.7-4.3-4.3 4.3-4.3m10-5.7l-7.2 7.1m-5.7 4.3l-18.6 24.3h-2.8l1.4-5.7m21.4-17.2l-18.5 18.6m-4.3 4.3l-360 352.8-107.2 104.3-50 52.9c-12-.8-12.4 13-18.6 20-16.7 19-35 40.5-55.7 55-26 18.3-63 4.7-92.8 13.6-45 13.5-36.7 79-15.7 107.1m318.5 35.7c-4.2-17 17-42 25.7-55.7 30.8-49.2 67.7-94.6 100-142.8 36.4-54.3 71-109.7 106.7-164.3 14.9-22.8 28-51.5 46.7-71.2 21.1-22.3 54.4-38 79.5-55.6 59.7-41.7 120.6-81.8 180-123.8 40.4-28.6 81.7-55.8 122.9-83.2 14-9.4 35.4-29.8 52.8-30.4 27-1 61 16.8 84.3 28.8 7.1 3.7 21.2 9.5 23 18.2 1.3 6.6-4.6 15.6-7 21.5-7.2 16.7-14.5 33.4-22 50-21.8 47.6-44.3 95-65.6 142.8-6.6 14.9-14.1 29.4-20.6 44.3-3.7 8.3-7.3 20.2-13.9 26.6-8.4 8.1-22.3 13.2-32.5 19-21 11.6-41.7 23.8-62.8 35.4-82.8 45.5-164.7 92.8-247.2 138.8a9661 9661 0 00-218.5 125.3c-44.3 26.3-84.2 55.3-131.5 76.3M3891.4 875c18.3-3.2 35.8 13.7 50 23.2 38.2 25.4 76.1 51.2 114.3 76.7 62.6 41.7 123.8 85.4 185.7 128 29.1 20 66.8 39 91.2 64.5 21.1 22 36.8 54 53.2 79.8 27.2 43 56 85 84.2 127.2 37.7 56.6 80.1 110.8 116 168.6 8.3 13.4 18 26.8 24.2 41.4 1.3 3.1 6.7 14.4.8 15.7-10.5 2.4-33.2-14.2-42.4-19-41.7-21.4-78.3-50.2-118.6-73.8a15067.5 15067.5 0 00-378.6-215.3c-35.9-19.8-71.1-40.6-107.1-60.1-13.6-7.4-38.1-16-46.7-29-12.8-19.8-21-44.3-30.9-65.7-21.8-47.5-43.2-95.5-65.6-142.8-8.3-17.4-16-35.1-23.4-52.9-2.3-5.6-8.2-15.1-5.8-21.3 3.4-8.4 16.4-13.1 23.8-17a267.4 267.4 0 0175.7-28.1m-594.3 110.7c4.1-8.4 15.8-14 22.9-20.2 16.5-14.4 31.7-30 47.1-45.5 5-5 15.2-19.7 22.9-19.7 7 0 15.5 12.3 20 16.8 15 15 31.4 29.4 43.3 47.2 4 5.8 10.5 14 9 21.4-2.9 15.1-26.7 13.6-38 15.1-14.5 2-29.8-1-44.3-2.1-26.7-2-57.7-3.5-82.9-13m-894.2 1.4c-15 5.6-32.8 4.5-48.6 6-27.4 2.6-55.3 5.5-82.9 5.5-10.7 0-36.8-.1-39.1-14.3-1.3-7.8 5.5-16 10-21.4 12.4-15.3 27.8-28 42-41.4 4.5-4.3 13.5-15.4 20-15.5 7.9-.2 19.8 13.6 25.7 18.3 16.7 13.4 33.5 26.7 50 40.3 7.9 6.6 18.4 13.2 22.9 22.5m-921.5-78.5l-14.3 21.4-1.4-1.4 2.9-7.2M4220 910l17.1 15.7-1.4 1.4-1.4 1.5 1.4 1.4 1.4-1.4m-5.7-5.7l1.5 5.7m-2767.2-2.9v2.9m-448.6 434.3l28.6-20-4.3-4.3 292.9-287.2 95.7-93 34.3-31.3m2772.8 1.5c15.7 6.6 28.2 23.8 40 35.7 25 25 50.7 49.3 75.8 74.3a7045.6 7045.6 0 00252.8 243c29 26.3 56.2 55 85.7 80.7 7.6 6.6 27.6 19.7 21.5 30.6l1.4 1.4 2.8 1.4v-5.7m-3250-458.6c-53.4 79.3-99.3 171.3-170 237-23.2 21.6-52.3 38.6-78.5 56.4-57.1 38.8-116.7 76-171.5 118m3187.2-411.4l94.7 147.2 47.5 72.4 32 23.5 68.6 48.6 235.8 169.8m-967.2-459c5.5-.5 7.6 4.8 9.7 9 5.5 10.8 10.4 21.9 15.7 32.8 22.6 46.7 42.7 94.6 65 141.4 5.8 12.3 12.7 25.3 15.8 38.6 1 4 3.4 13-2.3 14.6-7.6 2-20.5-12.3-26.7-16-26-15.3-53-29-80-42.5-38.9-19.5-78-38.5-115.8-60-12.6-7.1-34.1-17-39-31.8-5-15.3 16.7-29 27.6-35.3 26.3-15.2 56.3-20.6 84.3-31.8 13.8-5.5 31-17.4 45.7-19m-1900 237.5c-4.3-15.8 11-38.6 17.4-52.8 19.5-44.1 41.3-87.3 60.6-131.5 5.7-13 12.2-25.6 18-38.5 2-4.9 4-12.5 9.9-13.8 9.8-2.2 26.1 6.2 35.5 9 33.5 10.2 68.8 21 98.6 39.7 11.7 7.3 27.8 19.3 25.3 35-4.3 26.1-43 41.2-63.9 51.2-16.3 7.8-33.6 12.3-50 20a1998 1998 0 00-151.4 81.7m1448.6-187.1h1.4M2250 1013.5c23-4.5 49.7 3.4 72.9 5 37.7 2.5 84-4.2 120 8.5 30.3 10.6 56.6 35 81.4 54.7 39.8 31.9 79.7 64.2 121.4 93.6 32.5 22.9 65.1 44.4 95.7 70 13.3 11.2 29.9 24.7 31.3 43.3 4.8 60.4-83 68.1-124.1 84.5-15.8 6.4-33.7 20.7-50 23.9-8.6 1.7-17.5-11.7-22.9-17-18.5-18-37.3-36-55.7-54.3-75.2-75.2-152.3-148.6-227.1-224.3a333.8 333.8 0 01-49.7-60c-6.7-11.2-9.4-24.7 6.8-27.9m1152.9 0c17.8-2.4 69.6-4.5 63.7 26.5-1.9 10-14.1 19-20.9 25.7l-57.1 57.2A5693.6 5693.6 0 013180 1323c-18.4 16.6-36.8 33.3-55.7 49.4-6.9 5.8-16.3 16.1-25.7 17-13.2 1.3-30.8-7.5-42.9-12-24.9-9.5-49.5-19.7-74.3-29.5-13.6-5.4-29-9.2-40-19.6-15.5-14.8-20.2-45.2-6.6-62.7 19.5-24.8 50.6-36 75.2-54.1 50.3-37 98.4-77 147.1-115.9l61.5-48.8c9.2-7.5 20-19.2 31.4-23 11-3.8 25.6-1.6 37.1-2.7 38.4-3.7 77.6-2.7 115.8-7.7m-878.6 12.2l124.3-1.4 292.8-1.4 130 1.5 68.6 1.3h32.9m-637.2 2.9c6.7 12.4 24.6 21.4 35.7 29.8 24 18 47.2 37.4 70 57 29.8 25.5 58.4 52.4 88.6 77.6 17.9 14.9 36.1 31.8 58.6 39.3 17 5.8 35.1 4.8 52.8 4.8 26.9 0 56.6 2.7 81.5-9.7 19.2-9.6 35.3-25.9 51.4-39.9 27-23.4 54-46.9 81.4-69.8 24-20 48.5-39 72.9-58.6 11.7-9.3 25.7-17.9 35.7-29.1m-1040 26.4c33.3-6 14.2 48.9 8 65-5.2 13.3-14.5 23.8-19.7 37.2-24.2 62.3-44.3 126.4-65 190-26.7 81.9-52.7 164-80 245.7-7.3 21.8-14.4 43.8-21.4 65.7-2.8 8.7-4.1 21.4-10.9 28-6 5.8-16.4 8.6-23.9 11.8a3046 3046 0 00-50 22c-57.4 26-115.3 51-172.8 76.6-38.3 17-73.1 40.1-111.5 56.5-11.4 4.9-28.7 15.7-41.4 14.8-9.2-.7-12.2-10.5-11.4-18.3 2-17.4 9.8-35.2 16.3-51.4 10.2-25.6 25.4-47.2 37.6-71.4 22.4-44.5 42.8-89.8 65-134.3 39.7-79.7 75-162 112-242.9 11.2-24.3 22.7-48.4 33.6-72.8 5.6-12.6 10.5-30.4 19.3-41 11.5-13.5 36.6-22.3 51.9-31.3 41.8-24.8 84.5-48.2 125.7-74 45-28.2 84.1-66.3 138.6-76m1438.7.5c15.6-6.7 37.8 4.7 51.3 11.4 40.8 20.4 78.3 50.3 117.1 74.6 36.5 22.8 74.2 43.8 111.5 65.2 14.7 8.4 37.8 16.8 49 29.7 9.2 10.5 14.5 29.5 20.1 42.3 11 25 22.8 49.5 34.2 74.3 42.8 93.4 86.2 186.6 129 280 15.5 33.5 30.8 67.7 48.8 100 13.4 24 27.4 45.5 37.7 71.4 5.5 13.6 25.1 52.3 6.7 62.2-13.3 7.2-38-8.8-49.8-14.7-43.3-21.6-86.7-42.8-130-64.3-51.3-25.4-104.6-47.3-157.2-70-19.2-8.2-51.3-15.4-66.5-29.8-6.7-6.4-8.7-20.5-11.6-29.1-8.2-24.7-15.6-49.6-23.8-74.3-30.6-92.2-59.3-185-90-277.1-17-51-33.4-102.8-53.2-152.9-5.3-13.2-14.3-23.8-19.4-37.1a128.7 128.7 0 01-9.8-45.7c0-6-.5-13.4 6-16.1M2548.5 1417c-16.9 10.8-37.4 17.7-55.7 25.5-31.6 13.6-63 27.6-94.3 41.5-92.2 40.7-183.8 83.5-277.2 121.3-33.8 13.7-67.2 28.6-101.4 41.3-6.3 2.3-27.3 14.1-33.4 10.1-4.8-3.2 6.5-27.6 8.2-32.5 11-33.3 21.4-66.7 32.3-100 36.5-110.4 73.8-221.2 106-332.9 3.8-13.3 9-26.4 11.9-40 5.5-26.4 4.5-65.3 32.1-79.8 42.4-22.2 81.8 39.2 105.5 65.5a6015.4 6015.4 0 00164.6 175.8c33.2 34 72.5 66.4 101.4 104.2m1167.1 247.2c-15.3-.7-33.3-11.9-47.1-18.1-27-12.2-54.3-23.8-81.5-35.6-100.6-43.8-201.5-87.6-301.4-133.1-32.2-14.7-64.6-29-97.1-43-6.8-3-30-9-32.4-16.5-2-6 13.3-18 17-22.3 19.1-21.6 39.9-41.8 59.5-62.8 65.2-70 128.8-141.9 195.9-210 22.2-22.7 48.5-64.2 85.7-54.7 34.3 8.8 33.2 49.3 39.3 77.5 4.7 21.7 12.5 43 18.9 64.3 30 100 63.2 199.3 95.6 298.6a4850 4850 0 0133 104.3c5 16.8 12.3 34 14.6 51.4M4440 1247l7.1 1.5 1.5 1.4-1.5 1.4-1.4 1.5-2.8-2.9m-3185.8-1.4c-9 22.2-23 42.4-35.4 62.8-28 46.1-58.6 90.6-86 137.2-24.4 41.5-40.4 90.7-78.6 122.6-14.8 12.4-32 13.8-50 18.3-7.6 1.9-16.3 6-24.2 5.2-18-1.8-36.5-12.6-51.5-22-11.8-7.3-26.8-16.8-33-29.8-11.4-24.2-2.5-59.8 18.7-74.7 27.3-19.1 57.8-34 85.8-52 51.2-33 101-68.1 151.4-102.4a5430 5430 0 0167.1-45.2c10.2-6.7 22-17 34.3-18.6m3194.3 0c29.2 20.8 61.3 38.5 91.4 58.1 57.5 37.5 114.3 76 171.5 113.8 21.1 14 42.5 27.6 62.8 43 12.4 9.2 25.4 20.7 28.8 36.5 9 41.5-19.9 61.3-51.6 80.3-9.8 5.9-24 17.3-35.8 17.5-8.6.2-16.6-8-24.2-11.2-15.5-6.5-33.2-4.1-47.2-13.8-36-24.9-51.5-73.5-72-110-23.2-41-49.5-80-74.5-120-18.3-29.2-34.9-60.5-55-88.5m-2701.3 20c-.4 13.4-9.3 27.8-14.5 40-11.8 27.3-24.5 54.2-36.4 81.4-44.1 101.3-93.9 200-137.5 301.5-13.3 31-22.8 63.2-36.1 94.3-7 16-14.6 34.5-29.8 44.3-11.2 7.2-25.8 8-38.6 10.3-14 2.4-30.2 9.4-44.3 8-32-3.3-63-31.9-88.6-49.3a1671 1671 0 00-124.2-79.3c-30.4-16.9-91-36-99-74-4.5-20.7 7.3-35.7 24.7-45.3 38.5-21.2 79.9-36 118.5-57.4 112.8-62.5 225.9-124.6 338.6-187.1 37.9-21 75.8-42.2 114.3-62 16.4-8.5 34.6-22.1 52.9-25.4m2216.6 1.8c7-4.6 31 13.2 37.6 16.4 39.7 19.9 78.4 42 117.2 63.4 110.1 61.1 219.5 124.6 331.4 182.3 24 12.4 49 21.6 72.9 33.6 30.9 15.5 112.4 47 82.6 94-3.3 5.2-7.9 9.8-12.6 13.8-21.4 17.8-50 29-74.3 42.3-40.7 22-81.4 45.5-120 71-21.8 14.3-41.6 31.3-62.9 46.3-10 7-20.7 15.9-32.8 18.6-14.2 3.3-23.4-6.4-35.7-11-17.2-6.6-41-2.1-55.7-13.3-16.7-12.6-24.9-39-32.3-57.8-18-45-34.7-89.8-54-134.2-40.9-93.6-86.5-185-127.2-278.6-9.6-22-19.5-43.7-29-65.7-1.6-3.7-9.9-18.1-5.2-21.1m-2921 66.8l3-2.9m0 0h2.8m3684.3 4.3c18.3 18.4 39 34.3 58.5 51.7 17.2 15.3 35.8 33.2 57.2 42.5 11 4.8 20.8 1.3 31.4 4.4l1.4 1.4c-39.7 23-75.9-21.6-101.4-47.1-7.7-7.7-27.9-21.5-27.1-32.9m-21.5-18.6l20 20m-3798.5-1.4l5.7-1.4M2820 1631.4a779.9 779.9 0 01-84.5-82.8c-23.7-26.2-48.4-51.4-70.9-78.6-6.8-8.3-21.5-22.6-21.1-34.3.2-6.1 6.2-9.1 10.8-12 10.6-6.8 20.4-14.5 31.4-20.6 43.4-24.2 92-52.1 139.8-21 5.7 3.6 4.5 10.6 4.5 16.5v41.4c0 43.4-.3 86.7-1.4 130-.5 18.4 2 45.6-8.6 61.4m58.6 0c-9.5-19.3-7.2-48.8-7.2-70 0-39.9-1.4-80-1.4-120 0-13-6.5-51.9 5.8-59.4 50.8-31 96.3 3.7 142.8 27 11.5 5.7 22.7 12 34.3 17.8 3.4 1.7 11 4.2 11 9 .1 5-7 10.8-10 14.2-10.7 12.1-22.2 23.6-32.9 35.7-43.7 49.6-89.7 105.7-142.4 145.7M950 1368.6l-12.9 12.8m-145.7 72.9c3-10.3 25.2-11.3 34.3-11.4 34-.4 53-15.8 78.6-37.8 9.7-8.4 19.3-20.4 31.4-25.1m3784.3 14.3l2.9 2.8m154.2 48.6c45.9 0 78.3 42.4 72.5 87.2-2.3 17.4-13.9 27.5-18.2 42.8l-1.4 1.4-2.9-2.8-1.4 1.4-1.4 1.4c2.9 8.2-4 14.5-4 22.9-.2 14.8 14.5 35.5 5.4 48.6-9-20.2-32.8-63-1.4-71.5m-4140-121.4l5.7-4.3m-1.4 2.9v1.4m1794.3-.2c6.4.1 12.8 7.6 17.1 11.7 11.8 11.3 23.4 23 35.7 33.6 44.7 38.9 91.3 80.4 130.4 125 16.9 19 38.4 41 17.6 65.6-24.2 28.3-61.7 35.2-95.1 45.8-34.9 11-69.3 26.8-102.9 41.2-169.9 72.3-340.4 143.1-510 216.3-48.1 20.8-98.4 39.7-144.3 65.1-19.5 10.8-49.2 33.5-72.8 29.9-12.4-1.9-14.6-11.9-14.3-22.6.5-19.5 8-40.5 15.1-58.5 21.4-54 43.8-106 61.5-161.5 10.8-33.6 18.9-79.7 40-108.5 9.7-13.2 31.8-19.6 46.2-26.2 34-15.5 67.6-31.6 101.5-47.1 112.3-51.5 225.6-100.9 338.5-150.8 32.4-14.3 64.6-29.1 97.2-43 10.5-4.6 27-16.2 38.6-16m531.4 1.7c10.4-4.6 35.9 12.2 45.7 16.6 40.8 18.4 81.8 36.3 122.9 54.2 108.5 47.2 216.7 95.2 324.2 144.4 27.7 12.7 55 26.3 82.9 38.4 14 6.2 35.7 13.1 46.6 24 6.7 6.7 9.7 18 13.1 26.6 7.7 19.3 14.7 38.9 21.3 58.6 12.6 38 23.2 77 37.9 114.3 11.4 29.2 26.8 55.2 35.6 85.7 4.9 17 22.3 58.2 1.2 68.8-8.6 4.3-17.2.7-25.7-2.1-18-6-35.7-13.3-52.9-21.3-21.6-10.2-41.4-23.2-62.8-33.6-48.3-23.4-98.2-43.6-147.2-65.6-154.7-69.8-312-134.2-468.5-199.9-31.3-13.1-63.2-28-95.7-37.7-28.4-8.4-62.4-14-79.9-41.5-15.4-24.3 12.8-51 28.4-67.1 39.6-40.6 80.9-79.4 122.9-117.4 14.7-13.3 31.8-37.3 50-45.4M762.9 1558.6l1.4 7.1m4.3 0c30 16.1 18.9 43 12.3 68.6-14.6 56.8-33.5 112.9-46.6 170l-1.4 1.4-4.3-4.3-1.5 1.5 4.3 8.5 1.5-5.7m32.8-237.1c12.4 27.5 6.1 52.8.3 81.4-10.3 50.4-30.6 100.5-37.4 151.4M4927 1573l4.3-1.5m-2.8 4.3l-2.9 2.9m21.4 582.8l-1.4 1.5c-8.4-7.2-12.4-19-17.6-28.6-11.4-21.2-22-42.8-32.7-64.3-37.5-75-71.7-152-111.6-225.7-11.5-21.4-21.6-43.9-34.8-64.3-13.2-20.3-29-38-33-62.9-3.3-19.5 5.8-28 11-45.7 4-13 1-27.6 7.3-40 11-21.6 39.3-34.3 60-44.6 9.6-4.8 20.4-9.8 31.4-9.1 58.2 3.6 55.7 89.8 61.8 132.3 13.8 95.6 27.4 191.4 40 287.1 7.2 54.2 19.6 109.6 19.6 164.3M753 2158.6c-4-13.7 1.7-33.2 3.6-47.2 4.1-29 7.5-58.1 11.7-87.1 15.1-106.2 29.1-212.5 44.3-318.6 4.3-30.4 7.4-61.8 15.9-91.4 5-17.6 18-32.6 37.3-34.2 36-3 83.7 19.5 100 52.8 5.8 11.7 4.5 26 8.2 38.5 4.7 15.8 15.6 28.6 11.5 45.7-6.5 26.6-25.6 50.3-40.1 72.9-12.8 19.9-23 41.7-33.5 62.9-26.2 52.3-53 104.4-78.6 157.1-24.7 51.1-49.2 103.8-80.3 151.4m4178.5-514.3l-4.3 7.2v1.4l1.5 1.4 4.3-4.2m-7.2-4.3l1.4 4.3m1.5 4.2c29.2 67.3 42.4 143.7 62 214.3 40 143.7 79.2 287.5 118.2 431.5 15.5 57.1 32.4 114 46.7 171.4 5.3 21.1 19.6 49.3 14.5 70l1.4 1.4 2.9-2.8 1.4-4.3M4934.3 1657l-1.4 5.8m-274.3 655.7l-1.5 1.4c-39-27.4-72-69.2-105.7-102.9-58.5-58.5-120.6-116-174.9-178.5-32.4-37.3-73-66.6-70.7-120 1.8-41 34.5-54 67-70.4 63.8-31.9 120.4-72.2 178.6-112.4 19.2-13.3 62.6-52.2 87-32.1 12 9.7 12 32.2 13.2 46.3 3 38 4 76 4.1 114.3.7 151.3 2.9 302.9 2.9 454.3m-3620 10h-1.5c-4.1-14.2-.1-29.9 0-44.3.5-34.4 2-68.6 2.9-102.9 2.7-109.5 5.7-218.9 5.7-328.5 0-33.5-.7-66.7-3-100-1.3-18.8-2.5-36.8 15.9-48 13-7.7 25.9-3.7 38.5 2.6 22 10.9 42.7 24.8 62.9 38.5 39 26.5 78.5 54.1 120 76.4 34 18.2 77.6 33.6 103.6 63.4 14 16.1 13.5 41.6 9.5 61.3-3.6 18.2-16.9 33.4-28.5 47.2-22.4 26.8-47 52.4-71.7 77.1-85.3 85.2-169.2 172-254.3 257.2m-27.2-605.7c6.9-1 5.6 9 4.8 12.8a312.2 312.2 0 00-4.8 52.9c-1.2 47.6-5 95.3-7 142.8-1 23.2.4 47-1.8 70-8 84.7-6.2 172.1-8.3 257.2-.6 24.3-1.4 48.5-1.4 72.8 0 11.8 1.7 29.1-2.7 40-3.6 9-13.5 16.2-20.2 22.9-13.6 13.6-26.4 27.8-40 41.4-43.6 43.6-85 89.3-128.6 132.9-32.6 32.6-64.5 65.9-97.1 98.5-7.6 7.7-25.8 31.5-37 31.8-6.6.2-6-8.9-5.8-13.2.3-14.8 4.2-29.7 6.7-44.3 10.7-61.5 24.3-122.6 34.5-184.3 7.9-47.4 14.5-95.4 29.2-141.4 17.5-54.7 44-106.8 68.4-158.6 41.3-87.3 84.7-173.6 125-261.4 19.9-43.4 41.2-86.1 60-130 4.5-10.4 12.8-40.8 26-42.8m4023 978.5c-29.7-15.3-55.2-49.4-78.6-72.8-55.5-55.5-108.7-113.3-162.9-170-20-21-40.7-41.4-60.2-62.9-7-7.7-19.5-15.7-23.2-25.7-3.7-10.2-.4-25-.9-35.7-1.3-30-2.8-60-2.8-90 0-80.7-3.7-162.3-7.2-242.9-3-70.8-8.2-142-10-212.8-.4-17.3-3.2-34.4-6.2-51.5-.7-3.8-2.2-13.5 3.7-14.2 5.2-.6 10.3 6.4 12.9 10 8.8 12.3 13.4 27.6 19.5 41.4 25.8 58 54.1 114.9 80 172.8 39.2 88.1 83 174.3 124.1 261.5 18 38 43.3 77 55.8 117.1 6.3 20.4 6.5 44.5 9.2 65.7 5.5 41.5 11 83 17.6 124.3 7 43 19.2 84.4 27.2 127.2 3.3 17.8 9.3 41.1 2 58.5m-2242.9-973.6c31-5.5 30.6 22.6 33.3 45 6.2 51.9 5.3 106.4 5.3 158.6v592.9c0 43.4-2.7 86.7-4.3 130-.9 25-4.7 48.6-32.8 55-19.5 4.3-40.6-14-55.8-23.7-44.5-28.2-88.2-58-132.8-86-176.8-111.5-355.3-220.2-532.9-330.2-50.9-31.5-102-63.3-154.3-92.5-13-7.2-47.6-22.6-45.1-41.2 2.8-21.1 33.6-33.3 50.9-39 55.3-18.2 109.1-42 162.8-64.4 158.8-66.7 318.2-132.5 475.7-202.1 41-18 83.2-34.3 122.9-54.9 34.1-17.6 68.4-40.7 107.1-47.5m101.5.2c18.4-5.3 43.8 9.9 60 17.3 45.3 20.7 90.2 42.3 135.7 62.8 176.5 79.6 355.7 153.3 534.3 228.2 53 22.2 110.3 37 161.4 62.6 12.3 6.2 44.6 20.4 44.6 36.8 0 16.3-32.7 34.9-44.6 42.9-20.1 13.4-41.9 22.4-62.9 34-34.3 19.1-67.7 40-101.4 60.3a26573.7 26573.7 0 00-495.7 306.6c-45 28.4-90.6 56.1-134.3 86.3-21.5 14.8-44.8 38.7-71.4 43.5-22 4-38.5-13.9-41.8-33.6-7.6-45.4-5.4-94-5.4-140v-594.3c0-53.5-3.5-109.8 3.5-162.8 2-15-.8-45.2 18-50.6m-983.1 26c8 .3 1.3 16.3.2 20.3-6.3 22-12.6 44-19.5 65.7a3430.6 3430.6 0 00-44.6 147.1c-5.9 21.9-8.4 54.5-22.5 72.8-9.3 12-36.1 17-50.5 17.2-18 .2-35-9.5-50-18.1-28.9-16.5-56-36.2-84.3-53.6-17.2-10.5-37.6-15.6-52.9-28.7-14-12-42-37-33.4-58.1 13.4-33.2 55-36 83.4-46.9 64.2-24.8 127.3-53.9 190-82.1 19.4-8.8 39-17.1 58.6-25.5 7-3 17.7-10.2 25.5-10m1882.5 11.7c5.7-4.8 19 1.3 24.8 3.2a856.8 856.8 0 0168.6 26.3c46 19.8 92 39.8 138.6 57.8 27.9 10.8 55.9 18 82.8 31.5 32.2 16.1 59.8 43.4 27 75.2-24.8 24-55.3 32.2-84.1 48.6-45.9 26.2-103.1 98.5-160 57.6-29.6-21.3-37.7-68.3-43.7-101.7-7.7-42.8-22.1-84.6-35.8-125.7-6-18-11.5-36-16.6-54.3-1.2-4.2-5.7-15-1.6-18.5m-3066.6 42.8l4.3 7.1 1.4-1.4v-2.9m-7.1 2.9c5.2 18.5-7.3 33.1-12 51.4-11.4 44.6-25 88.6-37.4 132.9-45.6 163.9-93 327.8-134.4 492.8-10.7 42.9-25 85.5-34.7 128.5-1.1 4.8 3.2 9.2 2.9 14.4-1.1 19.9-10.8 46.7-27.3 58.6H480l22.9-67.2m227.1-810l-1.4 4.3m-5.7 0l4.2 7.1m-5.7-2.8l4.3 7.1m-5.7-1.4l4.3 5.7m-5.7-1.4l1.4 5.7m18.6 78.6c-2.8 12-8.8 22.4-12.3 34.3-10.7 36.6-21 73.3-31.4 110-29.8 104.5-57.8 209.5-87 314.2-10.5 38-21 76.1-30.6 114.3-3 12-12 30.6-4.4 41.5 12.9-18.1 21.3-39.2 31.8-58.6 24.5-45.3 50-93.6 65.3-142.9 24.6-79.3 34.5-165 45.9-247.1 5-36.2 11.5-72.3 15.6-108.6 1.4-12.7 7-29 2.8-41.4m4228.6-15.7l5.7 17.1-4.3 2.9-1.4-7.2m7.1 5.7c3.1 21.1 12.1 42.4 18 62.9 11.4 40 22.5 80 33.8 120 30.3 106.5 57.4 214 89.2 320 10.3 34.3 19.2 69.2 31.4 102.9 10.2 28 24.5 55.1 24.7 85.7l-1.4 1.4c-14.2-10.5-20.4-31.5-27.6-47.1-16.5-36-32.2-72.5-48.5-108.6-24.7-54.7-50-109.3-66.1-167.2-18.9-67.7-26.2-139.2-37-208.5-8-52-21.8-107.5-22.2-160M1497 2351.4c-5-9.3-3.7-19.7-4.4-30-1.6-23.1-2.7-46.7-2.7-70 0-53.4-.6-106.7-3-160-1-25.1-8.5-52-5.3-77.1 2.2-17.5 27-30 42.6-33.5 14-3.2 25.5 3.6 37.1 10.2 22.7 13 41.1 28.5 60.3 45.6 7.1 6.3 19.7 8 28.3 12.3 38.9 19.4 115 48.2 97.8 104-8.9 28.6-47.9 46.3-70.7 62.6-61 43.8-117.8 94-180 136M4203 2350c-19.4-8.4-36.3-24.5-52.9-37.3-39.2-30.2-76.3-63.1-117.1-91.2-11-7.6-23.3-9.9-34.3-16.7a112 112 0 01-46.8-62c-4.4-16.7-.3-33.9 14-44.6 20.6-15.6 46.3-24.4 68.5-37.6 27.6-16.5 52.6-37.8 80-55 16.9-10.6 40-29.4 61.4-24.9 16.2 3.5 40.4 15.5 42.6 33.6 3.4 26.9-3.5 57.3-5.3 84.3-3.3 47.3-3 95.4-3 142.8 0 20.5-1.3 41-1.4 61.5-.1 14.6.7 33.7-5.7 47.1M1437 1998.4c11.3-4.3 15.6 8.8 16.8 17.3 3 21.6.4 43.9.4 65.7 0 58-2.2 116.3-2.9 174.3-.4 36 2.4 72.7-.1 108.6-.5 7.2.6 19.3-2.8 25.6-4.3 8.3-15.7 14.2-22.8 19.8l-54.3 43.2c-76.5 61.1-159.8 118.6-230 187.1a626.2 626.2 0 01-71.4 61.2c-8.2 6-21 17.9-31.4 19-8.2.9-11-9.7-12.2-16-3.5-18.6-2.1-38.1-2.1-57 0-56 3.2-111.5 5.6-167.2 1.1-25.2-2.7-55.5 3.4-80 3-11.7 19.8-24.5 28.1-32.9 23.1-23 45.5-46.9 68.6-70 69.3-69.3 137.7-139.4 207.1-208.5 20.6-20.5 41.9-40 62.9-60 10.2-9.7 23.8-25.2 37.1-30.2m2817.3.2c12.4-6.7 34.8 19.7 42.7 27.1 37.2 34.7 74 69.8 110 105.7 63.1 63.1 125.6 127 187.2 191.5 16.3 17 33.3 33.3 50 50 7 7 18.4 16 22 25.7 4.8 13.1 1.7 30.5 2.3 44.3 1.6 36.8 1 74.7 4.5 111.4 3.8 39.8 6.6 84.5 2.9 124.3-1.2 12.2 4 32.7-8.9 40.3-11.5 6.7-36.9-17.5-45.7-24-43-32-81.8-67.4-121.4-103.2-55.9-50.6-116.6-96.3-175.7-142.8-17.2-13.5-34.4-27-51.4-40.6-6.7-5.3-17.3-10.8-21.4-18.4-3-5.5-1.5-13.9-1.5-19.9 0-15.7.2-31.4 0-47.1-.7-54.7-2.9-109.7-2.9-164.3 0-40-1.4-80.1-1.4-120 0-10.8-2.7-33.7 8.7-40m-2409.7 182.9c15.4-10 47.6 14.8 59.6 22.8 52.2 34.8 105.4 68 158.6 101.3 189.9 119.2 378 243.8 572.8 354.8 40.2 23 92.8 39.7 124 75.3 19 21.6 13.4 64.2-8.3 81.4-23 18.3-51.7 29-77.1 43.5-48.1 27.6-95.5 56.6-142.9 85.4-157.3 95.5-314.2 192-470 290.2-35.8 22.6-72 44.7-107.1 68.6-17.5 11.9-33.3 25.8-51.4 36.9a168 168 0 01-42.9 19.9c-5 1.3-11.9 4-16.7 1-5.1-3.1-5.3-11.6-6-16.9-1.6-15.6-3-31.4-3-47.1 0-37-2.6-74.5-4.2-111.5-1-22.6 2.2-46-.5-68.5-4-33.6-1-69-1-102.9 0-53.7-1.5-107.6-1.5-161.4 0-149.9-2.3-300.4 4.3-450 2.5-56.7-2.3-115 5.1-171.4 1.5-11.4-2.6-44.4 8.2-51.4m2005.3-.8c19.2-2.6 15.7 44 16.9 56.4 6 63.1 3.1 128 3.1 191.5 0 238 1.5 476.2 1.4 714.3 0 55.2 1.8 113.7-4.7 168.5-1.2 10.7 1.5 48.3-12.4 50.9-16.3 3-45-15.2-58.6-22.9-47.1-26.6-88.5-59.8-134.3-88.2-181.3-112.7-361.2-227.4-544.3-337.2-41.2-24.8-82.4-49.8-124.2-73.6-18-10.2-44-17.3-56.3-34.7-8.5-12.2-7.4-31.5-6.5-45.7 2.3-32.3 29.9-39.2 54.2-52.7 52.3-29 103-60.8 154.3-91.6a26637.2 26637.2 0 00495.7-305.2c33.3-21 68.4-40.8 100-64.4 33.4-25 72.1-59.4 115.7-65.4m-2070 2.2c6.3 14.9 5 34 5.8 50a3020 3020 0 012.8 97.1c1.1 98.5 2.8 197 2.8 295.7v551.4c0 44.8-3.1 89.6-4.2 134.3-.3 9.9 1.7 40-7.6 45.9-5.9 3.7-16-2.8-21-5.7-17.7-10-34-22.6-50-35-52.6-41-98-90.1-151.5-130.4-15.6-11.7-31.4-23.2-47.1-35-6-4.5-16.3-9.6-19.1-17-3-7.6-.9-19-.9-27V2454.2c0-11.6-3.3-29.1.9-40 3-7.9 14.1-14 20.5-19.2 17.2-13.7 34.4-27.5 51.5-41.4 36.7-30.2 74.7-59.2 110-91 33-30 63-65.4 107.1-79.8m2148.8 2.9c7.6-4.3 15.7 2.4 21.2 7 15.5 12.7 29 27.6 44.3 40.7 52.2 45 105.6 88.3 158.6 132.3 13.7 11.4 27.6 22.5 41.4 33.8 5.4 4.5 13.4 9 15.2 16.1 4 15.7.5 36.6.5 52.9v607.1c0 16.4 5.2 43.3-1 58.5-3.4 8-15.2 13.8-21.9 18.8a4812.7 4812.7 0 00-52.8 40.4c-44.5 34.2-87.9 69.9-130 107-23.7 20.9-47.4 47-77.2 59.1-25.7 10.6-17.1-40.4-17.1-55.2v-891.4c0-56.4 2.6-112.4 4.3-168.6.4-14.3.2-50.4 14.5-58.5m322.6 257c35.3 20.1 66.7 51.8 98.6 76.9 64.6 50.9 129 102 194.3 151.9 30.2 23 88.2 51.5 91.3 94.1 3.7 50.6-53.3 82.5-91.3 104.4-28 16.2-53.3 39.7-78.6 59.6-46.9 37-93.4 74.4-140 111.7-23.5 18.8-47.5 45-74.3 58.6l-1.4-62.9v-545.7l1.4-48.5m-2802.8 1.4l1.4 64.3v135.7l-1.4 454.3c-11.4-2.5-22.4-14.8-31.5-22-22-17.6-43.9-35.3-65.7-53.1a4636.2 4636.2 0 00-224.3-174.1c-33.1-24-71.7-50-61.6-96.5 3.8-17.6 20.5-28.7 34.5-38.1 20.2-13.7 39.3-29.2 58.6-44.2 64.5-50.2 129-100.5 192.8-151.5 20.9-16.6 42-33 62.9-49.4 10.7-8.5 21.7-19.8 34.3-25.4m-460 4.3c7.7 26.1 1.4 62.6 1.4 90v95.7c0 21.8.6 46.6-7.8 67.1-8 19.6-29.7 42.7-46.5 55.3-12.4 9.3-45.2 3.5-60 2.1-39-3.7-80.8-1.5-120-1.7-10.3 0-46.7.6-50.8-11.7-2.3-6.8 8.5-17.8 12.4-22.5A815 815 0 01767 2667c45.2-46.3 91.2-91.7 137.2-137.1 27.4-27.1 53.5-58 84.3-81.4m3722.8 0c27.6 21 50.4 49.1 75.7 72.7 51 47.4 104.4 95 150.5 147.3 15.7 17.8 33.2 33.7 47.6 52.8 4.5 6 14.1 16 10.2 24.3-7.5 15.6-43.8 14.1-58.3 14.3-38.6.5-77.2-1.4-115.7-1.4-23 0-51.7 0-70-16-13.2-11.6-27.1-26-33.6-42.6-7-18-5.6-37-6.4-55.7-1.7-38-1.4-76.2-1.4-114.3 0-24.8-5.6-57.6 1.4-81.4m-4060 21.4h1.5c2.5 9.4-1 20.5-2.3 30-2 14.2-2.8 28.6-4.5 42.9-3.6 30.8-4.7 62-9 92.8-2.5 18.4-5.6 39-17 54.3-7.4 9.8-18.7 15.3-28.7 22-13.1 8.7-19 18.7-28 30.8-3.3 4.4-7.7 7.8-13.4 6.2-31.4-9.3-22.7-48.5-12.5-69 20.5-41 44-80.7 65-121.4 15-29 28-63.4 49-88.6m4397 0h1.5c12.1 17 18.8 37.8 29.4 55.7 28.8 48.4 57.9 95.3 80.8 147.2 9.4 21.2 24.4 62.7-7.3 75.5-6 2.4-11.8-3.3-15.8-7-12.4-11.9-23.7-24.4-37.1-35.3-7.4-6-16.2-10.8-21.5-19-9.3-14.4-10.8-33.4-13.2-50-4.8-34-7.6-68.5-11.3-102.8-2-19.2-11-45.7-5.4-64.3M567 2530l-1.4 12.9m4602.9-12.9l1.4 8.6m-4597.1-4.3l-2.9 2.8m4607.1 7.2c11.1 39 23.3 77.5 36.7 115.7 3.7 10.6 17.8 30 12 40l1.3 1.4h2.9l1.4-2.8m-60-152.9c3 38.5 15.5 82.2 28.2 118.6 4.7 13.6 10.4 32 26.1 35.7M510 2618.6v7.1m-25.7 60v2.9m-4.3 4.3l-55.7 42.8-4.3-4.3c8.6-13.8 27.6-33.1 45.7-28.5m4765.7-4.3c14 8.5 27.6 8.6 40 21.4 26.8 27.9 25.5 80.6-2.8 107-10.4 9.6-29.1 9.5-37.5 19.1-18.1 20.8-28 61.8-34 88.2l-1.4 1.4-4.3-4.3-1.4 1.5c2.9 18.8-5.6 32.6-10.5 51.4-9.9 37.7-20.5 75.2-30.7 112.8-35.5 131.1-71 262.4-108.4 392.9-13.2 46-24.7 92.6-38.6 138.6-3.6 12.1-18.1 38.3-11.8 48.5v1.5l-1.4 1.4-1.5-1.4-2.8-4.3M457 2702.9l4.3 4.2m-42.8 28.6l5.7 1.4m-7.2 0l1.5 1.5c1.5 6-.6 9.4-4.3 14.3l2.8-15.8m-1.4 2.9l4.3 4.3m-5.7-1.4l4.3 4.2m-4.3 5.8l1.4 51.4 1.4 1.4 1.5-7.1m565.7 294.3c-9.6-4.5-16.9-14-24.3-21.5l-44.3-44.3c-51.5-51.4-102-103.6-152.8-155.7a689.1 689.1 0 01-47.5-54.3c-3.4-4.3-13.7-14.7-10-20.8 3.6-5.8 14.4-6.7 20.3-7.5 19.6-2.9 38.9-2.3 58.6-3.1 34.2-1.5 68.5-1.4 102.8-1.4 13.3 0 33.3-3.8 45.8.8 8.7 3.3 15.8 13.8 21.8 20.6 10.6 12 23.8 22.7 33.3 35.7 9.5 13.2 2 45.5 2 61.5 0 38.5-2.9 77.1-2.9 115.7 0 22.5 3.5 52.8-2.8 74.3m3728.6 1.4h-1.5c-7-23.8-1.4-56.6-1.4-81.4 0-39.5-1.4-79.3 1.3-118.6 1.2-17.9-.5-35.8 6.5-52.9 6.7-16.2 24-33.2 38-43.4 17.2-12.5 39.7-11.5 60-12.3 40.8-1.8 81.8-1.4 122.8-1.4 12.3 0 52.8-2.9 57.2 13 2.3 8.3-8 18.4-12.7 24.1a705.6 705.6 0 01-50.2 55.7c-72.5 73.3-147.2 144.4-220 217.2m-4060-10c-25.7-35.4-41-79.6-60.4-118.6-20.6-41.1-46.8-80-66.4-121.4-7.2-15.3 5.6-45 22.5-50.3 6.3-2 11 4.5 14.4 8.9 9.1 11.8 17.3 23.9 29.9 32.5 9.8 6.8 23.1 5.5 30.4 16 14.5 21.2 12.3 59.8 14 84.3 3.5 51.7 16 102.6 18.4 154.3m4387.2-14.3c.4-19.1 6.4-38.3 9.4-57.1 4.8-31.3 8.7-62.8 11.7-94.3 2.2-22.5 0-53.2 13.1-72.8 7.1-10.8 20.2-9 30-15.9 13.1-9 21.7-22 31.3-34.2 3.6-4.5 8.1-9.8 14.4-6.8 14.2 6.8 28.6 31.7 22.4 46.8-15.1 37-41.1 71.7-59.8 107.2-22.5 42.7-40.2 92-68.3 131.4l-4.2-4.3-1.5 1.4v5.8l1.5 1.4h1.4l1.4-1.4 1.4-1.5M427.1 2810l-5.7-4.3-2.8 2.9 4.3 7.1 4.2-4.3 34.3 24.3-4.3 4.3c3.7.6 8.7-.6 4.3-4.3m-37.1-28.6l-4.3 4.3m2.9 5.7c9.9 10 19.9 20.3 34.2 22.9m576.2-12.8c11.3-7.1 38.2 16 46.7 22.3 42.3 31.5 78.9 70.4 120 103.6 58.9 47.7 118 95 177.1 142.3l50 39.7c6.8 5.5 17.4 11.3 21.4 19.2 3.1 6 1.3 14.8 1.6 21.4.6 15.8 1.3 31.3 1.3 47.2 0 52.8.2 105.7 1.5 158.5 1 41 6.6 85.2 1.8 125.7-1.4 11.4 1 31.7-10.6 39-10.5 6.5-34-19.8-41.2-26.3-38.8-35-79-71-114-109.8-55.9-61.7-115.8-121.2-174.6-180-17.9-17.9-35-36.4-52.9-54.3-8.8-8.8-21.8-18.4-27.1-30-6-13.2-2.9-39.6-2.9-54.3 0-36.8-.4-74.7-3-111.4-2.6-38-1.3-76.2-1.3-114.3 0-8.7-2.2-33.2 6.2-38.5m3626.7-.6c10.6-2.3 10.9 8.8 11.8 16.3 2.4 18.2 2.5 37.3 2.5 55.7 0 48.6-2.1 97.2-4.2 145.7-1.4 32 1.5 65.3-3.2 97.1-1.7 12-16 22-24 30-22.2 22.2-43.6 45-65.8 67.2-78.3 78.3-151.1 164.2-234.2 237.5-18.8 16.5-36.6 35-54.3 52.5-6.9 6.7-17.3 19.2-27.2 21-10.8 1.8-15.6-7.7-15.7-16.7-.3-24.8 0-49.6 0-74.3 0-62.6 2.8-124.8 4.3-187.2.9-37.4-3-78.7 3-115.6 1.7-9.8 17-17.8 24.1-23.5l68.6-55.2c68.4-54.7 139-107.6 204.3-166 25-22.2 48-46.1 75.7-65.4 10.2-7 21.9-16.4 34.3-19m-1877.1 8.3c11.2-1.2 41.6 8.2 46.2 19.4 5 12.3.9 33.8.9 47V3400c0 67.9 5.2 138.2-1.2 205.7-2.3 24.4 0 49.8-.2 74.3-.4 29.5-3 59.1-4.3 88.6-.7 16.8-.1 48.8-22.9 52-16 2.2-41.3-13.8-55.7-20-49.3-21-95.5-47.8-144.3-70.2a11905 11905 0 00-521.4-222.1c-52.7-21.2-104.7-45.5-158.6-63.5-15-5-48.7-13.2-49.4-33.4-.7-20.7 30.2-36.9 45.1-45.7 53-31 106-62.1 158.6-93.7a31483.8 31483.8 0 00507.2-312.6c37.6-23.6 77.6-45.9 112.8-73 23.8-18.3 56-48.3 87.2-51.4m125.7 0c23-4.3 44.1 16.2 61.4 28.3 40.7 28.4 83.5 54.5 125.7 80.7 177.3 110 352.7 222.8 531.4 330.3 52.9 31.8 109 56.4 158.6 93.4 11.6 8.7 23.5 17.3 34.3 27 3.8 3.4 9.3 8.2 8.7 13.9-1.8 16.3-33.3 30-45.8 36.7-20.1 10.8-41.6 15.4-62.9 22.8-34.7 12.1-69.1 26.4-102.9 40.9-165 70.9-331.4 138.2-495.7 210.8-44.8 19.8-90.4 38.6-134.3 60.6-26.1 13-54.3 33.7-84.2 36.3-25.9 2.2-27-28-27.2-46.7-.3-55.2-4.3-110.4-4.3-165.7 0-195.2-1.4-390.5-1.4-585.7V2900c0-12-4.7-36.4 1.5-46.8 5.3-9 27.2-16.4 37-18.2M467.2 2837l12.9 28.6 22.9 68.6 1.4 1.4 4.3-4.3 1.4 1.5-4.3 8.5v1.5l1.4 1.4h1.5l1.4-1.4 1.4-2.9M470 2838.6l-4.3 4.3m7.2-2.9c29 23.4 31.2 56.5 35.7 91.4m-44.3-88.5h1.4m548.6 978.5c-17-12-26.8-36.2-36.1-54.3-23.7-46-40-94.6-62.2-141.4-42.4-89.8-86-179.1-129.2-268.6-19-39-46-80-58.8-121.4-4.7-15.2-5.5-32.8-8.1-48.6-6-35.7-11.4-71.4-17.4-107.1-9.9-59.2-16.8-120.5-32.1-178.6-3.7-13.9-8.8-28.3-9-42.8 0-4-1.1-12 3.3-14 4.8-2.3 10.8 4.3 13.9 7 12 10.8 23 22.8 34.3 34.1 48 48 97.5 95.3 143 145.7 29.7 32.8 61.8 64 92.7 95.7 12.9 13.2 33.4 27.3 41.2 44.3 6.4 14.1 3 40.2 3 55.7 0 35.8 2.9 71.4 3 107.2 0 111.8 8.6 223.9 11.4 335.7.8 35 2.6 70.8 5.9 105.7 1.3 13.9 8.1 33 1.2 45.7m4177.1-890c3.2-24.6 4.8-86.7 38.6-88.5m-200 2.4c8.1-1.8 7.4 8 6.9 13.3a469.2 469.2 0 01-6.6 44.3c-12.5 64.6-27.3 128.7-34.7 194.2-12.2 109.4-58.4 202.8-103.7 301.5-39 85-78 170.1-118.7 254.3-20.5 42.4-37.8 86.4-58.9 128.5-4.9 9.8-16.1 37-28.4 38.7-7 1-3.7-12.5-3-15.8 3.6-19 4.9-38 5.7-57.2 3.5-79.3 4.7-159.3 10.1-238.5 5.6-82.2 2.7-165 8.3-247.2 1.4-20.1 1.6-41.2 1.6-61.4 0-8.9-2.4-21.9 1.7-30 10-20 34.5-36.7 49.6-52.9 41.5-44.5 86.2-86.3 127-131.4 32-35.4 66.5-69 100.2-102.8 11.6-11.6 25.9-33.8 42.9-37.6m-4525.7 90.4l1.4 4.3m4690-4.3l-1.4 4.3m-5.7 0l4.3 5.7M507 2944.3l5.8 4.3v-4.3l-1.5-1.4m4675.7 1.4l4.3 7.1m-4682.8-2.8c8.3 30.8 19.9 61.6 28.3 92.8 39 143.9 76.1 288.3 117.4 431.5 13.3 46.1 25.8 92.5 39.6 138.5 4.6 15.4 18.6 40.7 13.2 55.7l1.5 1.5h1.4l2.9-5.7M514.3 2950l-1.4 5.7m4672.8-5.7l1.4 5.7m-50 31.4l-7.1 8.6c8 11.4-2.3 34.4-5.5 47.2-10.8 42.9-21.4 86-33.5 128.5a13163.1 13163.1 0 00-97.6 362.9c-8.7 34.2-18 68.3-25.7 102.8-5.7 26-10.2 56.9-23.4 80m-4380-728.5c4.6 13.5 5.5 30 9 44.3 10.1 40 20.3 80 30.8 120 31.7 120.6 64.5 241 97.1 361.4a6346 6346 0 0135.4 135.7c5 20.2 5.7 47.7 19.1 64.3 6.5-14.3-2.1-40.7-5.1-55.7a4171 4171 0 01-22.9-127.2c-15.9-95-24.2-194.2-49.7-287.1-15.3-55.7-39.4-108-64-160-14-29.7-26.3-63.2-45.4-90m4567.1-1.4l-1.4 5.7m-4.3-1.5c-19 26.3-31.6 59.4-45.4 88.6-21.6 45.7-44.4 91.2-58.3 140-27.1 95.2-33.6 197-51.2 294.3-8.1 45-19.2 89.3-26.6 134.3-3 17.9-9.4 42.3-4.2 60m98.6-630v2.8M1497 3194.3c31 11.7 58.7 41.7 84.3 61.9 38.1 30 80 53.2 117.2 84.2 20 16.6 46.2 37 51.9 63.9 4.5 21.5-14.6 39.2-30.5 50.4-25.3 17.8-54 26-80 40.8-20.5 11.8-38.3 30.3-58.6 43.1-16.3 10.4-36.3 28-57.1 23.5-10.5-2.2-39.7-12.8-43.4-23.6-2-5.8.5-15.1.5-21.4 0-21.4 2.3-42.8 2.9-64.2 1.5-61 2.8-122.2 7-182.9 1.6-23.2-3.3-54 5.8-75.7m2701.4 2.8c9-2.1 7.6 14.8 8.2 20 2.7 23 3.2 47 3.3 70 .3 55.7 2 113 5.8 168.6 1.4 20.3 2.8 41.1 2.8 61.4 0 6.6 1.8 16.5-.9 22.6-4.2 9.8-30.8 18.9-40.6 21.5-20 5.3-42.4-11.8-58.5-21.5-42-25.2-81.3-56-124.3-79.3-22-11.9-47-24-44-53.3 2.3-24 19-48.6 39.7-60.7 8.8-5.1 18.5-6.5 27.1-12.4 41.3-28 79.1-60.9 118.6-91.3 14.2-11 28.4-22 42.9-32.5 5.7-4.2 13-11.4 20-13M1041.3 3220c17.2 13.1 31.9 30.4 47.2 45.7a5217 5217 0 0181.5 82.9c47.2 49.3 99.4 94.5 144.6 145.7 27.3 31 72.4 62.6 80.1 105.7 3.3 18.4-.4 48.8-13.6 62.7-19 19.9-50.6 29.4-74 42.8-48.7 27.8-97.2 57-143 89.4-20.7 14.7-41.6 29.5-62.8 43.7-7.7 5.1-17.2 13-27.1 9.4-18.4-6.9-23.6-23.3-26.1-40.9-5-34.3-5.2-71-5.3-105.7-.6-111.9-1.5-223.7-1.5-335.7 0-33.3-1.4-66.6-1.4-100 0-14.4-2.7-31.9 1.4-45.7m3621.2 3c6.1-1 1.7 27.6 1.7 32.7 0 35.7-2.9 71.4-2.9 107.2 0 124.2-4.2 248.6-4.3 372.8 0 28.3.3 63-8.6 90-3.5 10.5-15.6 22.3-27 23.6-12 1.3-30.3-15-40-21-36-22.3-68-49.2-103-72.6-27.4-18.4-55.6-37.7-85.6-51.7-31.6-14.8-75.2-28.6-85-66.9-13.1-50.8 24.8-88.2 57.8-121.4 67.9-68.2 134.8-137.6 202.9-205.7 22-22 44-44.5 67.1-65.5 6.6-6 17.7-20.3 27-21.6M754.2 3380h1.4c19.8 24 31.9 56.8 46.1 84.3 30.3 58.6 58.3 118.5 88.6 177.1l62.8 121.5c11.4 22 25.8 44 31 68.5 3.3 15.3-6.7 27.3-10.7 41.5-3.6 12.5-1.5 26.7-7.1 38.5-10.6 22-39 35-59.3 46.3-8.8 5-18 11-28.5 10.8-58.6-1.3-59.4-81.2-65.4-122.8-15.6-108.5-29.7-217.2-44.8-325.7-4.5-32.4-9.4-64.7-13-97.1-1.4-13.6-5-29.6-1.1-42.9m4192.8 0c3.4 13.1-1 30.9-2.6 44.3-4.1 34.3-9 68.6-13.9 102.8-15.1 107.5-27 215.7-44.3 322.9-6.1 38-4.8 91.8-43.4 111-8 4-18 10.2-27.2 8.1-9.2-2.1-17.7-8.6-25.7-13.4-19.3-11.6-45.5-23.3-56-44.3-6-12.2-4-26.9-7.9-40-4-13.3-13.7-25.6-11.2-40 8-45.5 41-83.8 63-122.8 33.3-58.8 60.3-121 90.3-181.5 17.5-35.2 35.3-70.4 52.9-105.7 6.1-12.2 13.5-35 26-41.4m-3095.7 77c9-3.8 21.3-.5 30 2 23.1 6.6 42.3 18 62.9 29.8 64.6 36.8 138.8 62.9 207.1 92 154.6 66 308.6 133.5 464.3 197 40.6 16.4 82.5 28.7 122.9 45.7 17.2 7.2 39.5 15.1 49.2 32.2 14.6 25.8-13 51.5-29.3 68.6-39.2 41-81.7 80-124.2 117.5-14.9 13.2-30.6 35.6-48.6 44.2-8.8 4.2-32.8-11.1-41.4-15-39-17.5-78-34.8-117.2-51.8-112.8-49-225.3-98.9-337.1-150.2-27.7-12.7-55.2-25.8-82.9-38.6-13.7-6.3-33.4-12.2-44-23.4-14-15-20.4-45-27-64.1-24.3-72.1-43-148.9-77.2-217.2-7.3-14.7-32.4-58.4-7.5-68.8m1985.7-.6c14-1.9 22.8 6.8 21 20.8-2.3 19.1-12.1 37-19.7 54.3-26.2 59.6-44 122.7-64.6 184.3-9.4 28.1-17.7 65.7-35.2 89.9-7.7 10.6-27.1 16.2-38.6 21.9-34.3 17.1-69.8 32-104.3 48.6-110.3 53.2-223.4 101.5-335.7 150.2-30.5 13.3-60.8 27-91.4 40-12.8 5.5-28.7 15.7-42.9 15.7-22.5 0-46.7-27.5-61.4-42-42-41.3-87.3-80-126.1-124.3-18.4-21-43.8-44.8-18.2-70 22.6-22 54.6-24.1 82.9-34.9 55.8-21.2 110.8-45.1 165.7-68.5 147.8-63.1 295.8-125.7 442.8-190.7 39.6-17.5 79.6-34.5 118.6-53.4 33.7-16.3 69.5-36.7 107.1-41.9m-2072.8 10c18.2-2.8 48 5.2 58.8 20.8 13 19.2 15.6 49.4 21.8 71.5 12.4 44.6 27.2 88.4 40.2 132.8 6.5 22.4 13.5 44.6 19 67.2 1.1 4.6 6.6 19.5-.2 21.7-10 3.4-31.6-8.7-41-12.2-39.3-14.5-77.4-32.2-115.8-49-38.5-16.7-77-37-117.1-50-27.4-9-61-13.6-76.3-42-11.6-21.2 14-46.1 29.2-58.1 15.7-12.5 34.1-13.1 50-23.4 40-26.2 82-71.6 131.4-79.3m2155.7 0c31.4-4.9 55.8 16.7 80 33.2 36 24.5 76.1 42.2 111.4 67.9 16.3 11.8 47.3 32.8 37.5 56.9-10.8 26.5-53 40.2-77.5 50-18.2 7.2-37.4 11.2-55.7 18.3-42.5 16.5-84 36-125.7 54.3-20.9 9.3-41.7 18.6-62.9 27.1-9.2 3.7-19.8 9.7-30 10-10.7.2-5.6-13.5-4-19.7 5.2-21.7 12.3-43 18.7-64.3 14-46.2 29-92.1 42.3-138.6 6.7-23.3 9.5-54 23.2-74.3 9.1-13.6 27.3-18.4 42.7-20.8M705.7 3655.7l1.4 7.2m4284.3 2.8l-1.4 8.6m-4281.4-5.7v4.3l4.3-5.8m2.8 5.8l-4.3 7.1-1.4-1.4v-4.3m821.5 3.9c14.7-5.8 38.2 6.3 51.4 12.2 42.5 19.2 83.4 43.1 125.7 63.5 51.5 24.9 104.7 47 157.1 69.8l47.2 20.6c7.4 3.2 18 6 23.6 12 6.7 6.9 8.2 20.5 11.1 29.4 8 24.2 15.3 48.7 23.4 72.9 29.2 87.9 56.8 176.3 86.1 264.3 14.7 43.9 28.8 88.2 45.5 131.4 8.9 23 22 43 29.2 67.1 4.9 16.2 24 58.8 2.5 68-13.7 6-35-7.4-47.2-13.3-41-20.2-75.3-48.9-114.2-72.4-36.6-22-73-44.1-110-65.3-16.5-9.5-42.2-19-54.8-33.2-8-9-11.8-24.3-17-35.2-14.4-29.7-27.8-60-41.5-90-41.9-91-82.5-183.1-127.1-272.9-28.2-56.8-53.9-114.9-82.9-171.4-6.1-12-29.4-49.1-8.1-57.5m-814.4.4l-4.2 5.7-1.5-1.4v-2.9m3445.7-.8c34.2-6 8.4 43.4 2 58-26.5 61-59 119.7-87.4 180-42.5 90.1-84 180.7-125.5 271.4-11.6 25.1-23.1 50.3-34.2 75.7-5.5 12.6-10.4 31-19.7 41.1-13 14.3-38.4 23.4-55.2 33-40 22.8-80.4 45.3-120 69-35.5 21.3-67.3 49.5-104.2 68-12.5 6.2-28.4 16.1-42.9 15.7-12-.3-14.8-11.1-14.2-21.1 1.4-20.2 9.9-41 16.6-60 6.6-18.5 17.2-34.7 24.1-52.9a4037 4037 0 0071.1-208.5c22.4-70.1 45-140.2 68.1-210 6-18 12.1-36.1 17.4-54.3 2.5-8.8 4.7-22.4 10.8-29.5 6.6-7.6 22.6-11.3 31.8-15 23.5-9.6 47.1-19.3 70-30.2 53.7-25.5 108.2-49.2 161.4-75.7 40.4-20 85.3-46.8 130-54.7m825.8-.6l4.2 5.7 1.5-1.4v-2.9m-4270 2.9l-4.3 7.1-1.4-1.4v-4.3m4268.5-1.4l2.9 11.4 2.8-10m-1030 587.1c-3.8-14 8.4-33 14-45.7 16.3-37.9 33.4-75.7 51.4-112.8 44.4-92 87.6-185 128.3-278.6 7.6-17.4 16.3-34.8 22.2-52.9 8.5-25.6 11.5-50.4 32.7-69.8 12.2-11.2 26.4-9.4 41.4-12.9 13.3-3 25.5-9.5 38.6-12.6 28-6.7 60.2 25.4 80 41.6 57.4 47 127.2 73.8 190 111.7 20.1 12.2 56 32.8 52.6 60.6-2.3 19.5-23 32.8-38.3 42-39.5 23.9-83 40.5-124.3 61.2-90.6 45.6-178.5 97.6-267.1 147-73.4 41-149 78.9-221.5 121.2m-2210-2.8c-14.5.9-31.6-11.9-44.2-18.2-35.4-17.7-69.9-37.5-104.3-57-122.2-69-244.5-137.6-368.6-203-35.7-19-73.5-34.5-108.6-54.5-20-11.4-32.7-24.9-26.8-48.8 3.7-14.8 17.2-25.4 29.7-33 22.7-14 46.6-26 70-38.8 37.6-20.7 78-41.8 111.4-68.8 26-21 64-57 98.6-60.5 15.1-1.6 30 8 44.3 11.7 13.4 3.4 30 1.5 41.4 10.2 24.2 18.3 27.8 45.4 36.5 72.1 8 24.4 20.5 48 31 71.4a43122 43122 0 00125.8 277.2c14.7 32 29.6 63.7 44.3 95.7 6.4 14 16.8 29 19.5 44.3M720 3688.6l-4.3 5.7-1.4-1.4v-2.9m7.1 2.9c13.7 59 33 117.3 49.2 175.7 5 18 10.2 36.1 15 54.3 2 7.4 6.3 16.5 6 24.2 0 8.2-10 16.9-14.7 22.9-11.3 14.1-21.9 25.7-24.8 44.3-3.8 23.3 4.6 67 35 68.6l1.5 1.4-2.9 4.3 1.4 1.4h1.5l1.4-5.7m4188.6-391.4l4.3 7.1 1.4-5.7m-4268.6 0l1.4 5.7 4.3-4.3m4255.7 1.4c-1.5 7.3-3.8 12.6 1.5 18.6l4.3-15.7M717 3700c2.8 20.7 10.6 41.3 16 61.4 12.3 47.2 26.2 94.8 34.9 142.9 2.5 14.3 7.6 31.2 5.7 45.7-1.2 8.8-9.5 21.4-3.7 28.6m4202.9-264.3l4.2 7.1 1.5-1.4v-4.3m-7.2 4.3l4.3 7.1 1.4-1.4v-4.3m-7.1 4.3l4.3 7.2 1.4-1.5v-4.3m-7.1 4.3l4.3 7.2 1.4-1.5V3733m-7.2 4.2c1.8 6.2 3.8 8.5 0 14.3l-1.4-8.5m7.2-4.3l-1.5 4.3m-4.3 8.5c-4.2 28.8-14.1 57.5-21.2 85.7-2.4 9.7-11 22.7-5.9 31.5v1.4l-1.4 1.4-1.5-1.4-2.8-4.3m7.1-5.7l-1.4 5.7m-7.1 4.3c-3.4 7.6-9.6 14.2-9.8 22.9-.3 7.9 4.3 14.2 6 21.5 2.4 10.6 0 39.9-6.2 48.5l2.8 4.2h1.4l1.5-5.7m10-90l-8.6 40m-2382.9 214.3c-5.2 11.3-17.1 19.7-25.6 28.6-17.4 18.2-35.6 35.8-52.8 54.3-62.6 67.2-128.1 131.5-187.9 201.4a921.5 921.5 0 01-46.5 51.4c-5.9 5.9-13.3 15.1-21.4 17.7-7.7 2.4-24.4-2.8-31.5-6.1-22.3-10.6-31.7-42.6-38-64.4-4.9-17.4-6.4-35.5-11.2-52.9-12.2-44.6-27-88.5-40.4-132.8-25.6-85.1-52.7-170-80.8-254.3-6.9-20.5-13.2-41-20-61.5-1.4-3.9-8-16.5-4.3-19.9 5.8-5.1 28.5 7.2 34.7 9.7 34.1 13.2 67.8 27.4 101.5 41.7 142 60.4 284.7 121 424.2 187.1m1157.2-236.5c17.3-2 3.5 24.1 1 32.2-10.5 35-23.6 69.2-33.7 104.3-32.4 112.7-81 222.4-105.9 337.2-5.8 26.8-10.6 53-21.2 78.5-3.9 9.4-8.6 22-17.4 27.7-6.5 4.3-19.4 5.3-27.1 6.3-9.6 1.3-18.7-7-25.7-12.5a618.3 618.3 0 01-51.4-47.2c-67-66.9-128.9-138.8-194.3-207.1-18.8-19.8-37-40.2-55.8-60-4-4.3-18.3-15.9-16.4-22.5 2-7.3 25.6-14 32.2-17 32-13.9 63.9-28 95.7-42.4 89.2-40.2 179.3-78.4 268.6-118.6 31-14 62.6-27.2 94.2-39.8 18-7.2 37.7-16.8 57.2-19m1220 22.1c-14.7 19.3-17.4 30.5-1.4 51.5m-2103.1-48.1c6.2-.1 5.8 12.6 6.3 16.6 2.4 18.3 3.4 37.3 3.9 55.7.9 36.2 0 72.5 0 108.6 0 18.2 1.9 42-6.5 58.6-6.8 13.5-33 24.8-47.8 25.3-12.9.5-27.4-8-38.6-13.5-22.2-11-45.7-20.7-67.1-33.3-10.4-6-25.9-14.2-23.6-28.5 2.4-15.3 16.4-28.8 26-40 23.3-27.1 48.6-52.8 73.3-78.6 17.4-18.2 34.8-36.6 52.9-54.3 4.5-4.4 14.4-16.5 21.2-16.6m59.2 0c4.3-1.4 9.6 4.8 12.4 7.2 11.1 9.6 21.1 20.5 31.5 30.9a3188 3188 0 01108.8 115.7c8.3 9.1 16.8 18.3 25.4 27.1 2.7 2.7 7.9 6.8 7.3 11.1-1 7.4-24 15.7-30.1 19.1-32 17.8-66.1 41-101.4 51.2-22 6.4-53.2-8.6-58.8-31.4-3.3-13.7-1.8-27.5-2.8-41.4-2.7-39.6.1-79 .1-118.6 0-18.1.7-36.2 2.6-54.3.5-4.2-.1-15 5-16.6m-1791 29.6c3.3-2.4 8.9.6 12 2a314.6 314.6 0 0132.9 16.9c44.5 25.4 87 55 131.4 81 121.7 71.5 245.3 140 368.6 208.8 33.8 18.9 67.5 38.2 101.4 57.1 14 7.8 35.7 15.3 46.2 27.4 14 16 22.5 44.4 31 63.8 24.4 56.7 52.6 111.9 77 168.6 5.8 13.3 28 46 14.3 57.8-18.6 16-46 26-68.5 35-7.7 3.1-18.7 9-27.2 8-16-2.2-35.2-18.8-48.5-27.5-34-22-67.8-44.2-101.5-66.6-65.4-43.7-129.8-89.1-194.2-134.2-31-21.7-70.4-41.5-97-68.5-16.9-17.2-28.3-42.5-41.6-62.6a5206.8 5206.8 0 01-89.7-138.5c-36.8-59.2-79.9-113.7-118.4-171.5-9-13.4-17.9-27-25.1-41.4-1.8-3.5-7.6-12.2-3-15.6m3526.2-1.5c0 17.5-16.6 37-25.5 51.4-26.2 42.3-58.7 81.3-86.4 122.8-38.8 58.2-76.4 117-114.3 175.8-16.8 26.1-32 60.6-54 82.6-22 22-54.3 37.7-79.8 55.5-59.8 41.8-120 83.2-180 124.7-41 28.4-81.6 57.5-121.4 87.3-13.3 10-32.2 33.4-48.6 36.4-9.6 1.7-23-6.4-31.4-10.5-24.2-11.9-61.5-24.8-79.5-45.4-4.6-5.2.3-12.5 2.5-17.8 6.2-14.3 12.2-28.7 18.7-42.8 27.4-60.2 54.6-120.3 82.9-180 6.5-14 11.6-33.7 22-45.2 10.2-11.4 30.1-18.3 43.4-25.9 31.8-18 63.8-35.8 95.7-53.8 125.8-71.3 252.7-140.6 377.1-214.3 42-24.8 81.7-53.6 124.3-77 16.3-9 35.4-22.2 54.3-23.8m-3358.6 348.5l-1.4 1.5c-10.9-1.9-20.8-11.2-30-17-24.3-15-47.7-31.8-71.4-47.8-50-33.7-99.3-68.7-150-101.4-27.1-17.5-56.1-32.2-82.9-50-22.6-15.2-34.4-50.8-21.4-76.7 6.3-12.7 19.8-20.5 31.4-27.7 18.2-11.4 37.6-25.2 60-23.6 12.4.9 24 5.8 35.7 9.3 10.6 3 25.8 5 34.2 12.3 13.8 11.9 22 31.2 30.5 46.8 11 20 23 39.2 34.7 58.6 43 71.5 94.9 140.3 130.6 215.7m3188.6 1.5c1.3-11.9 10.5-22.9 16.6-32.9 12.9-21.6 26.1-43 39.4-64.3 31.8-51.4 64-102.4 95.1-154.3 13.4-22.2 25.2-56 46-72.2 14.3-11 48-18 65.7-20.2 19.2-2.5 35.6 6.6 51.5 16.1 30.8 18.6 59.9 43.6 43.6 83.5-13.5 33-63 58-92.2 75.4-40.6 24.2-81 47.7-120 74.6-34 23.5-67.7 47.9-102.9 69.7-14.4 9-28.1 20.3-44.2 26m485.7-327.2c32.3 39.4 25.9 105.1-24.3 126.7-13 5.6-23.4.2-35.5 1.7-7.9 1-21.5 5.7-28.8 9.5-27.4 14.2-46.6 39-71.4 56.4l-4.3-4.3c19.8-20 41.7-59.5 70-67.6 10.5-3 21.1 2 31.4 3.4M764.3 3978.6l4.3 2.8m-5.7-1.4v2.9m20 101.4l1.4 4.3m7.1-2.9v5.7c21.1 12 45.1 2.4 65.7 12 31.3 14.3 52 43.7 80 62.3h1.5l1.4-1.4-1.4-2.9-1.5-1.4-4.2 2.9c2-12.4-15-25.9-23-34.3-10.5-11.2-21.5-24.3-35.6-31-22.2-10.5-54.4-7.3-78.6-10.5m-5.7 4.3h1.4m4082.9 5.7l-8.6 2.9m-2271.4 47.3c5.3-2 11 1.5 15.7 3.5 12.4 5.3 24.6 10.8 37.1 15.8 34.2 13.6 77.1 23 107.2 44.5a49.7 49.7 0 0116.5 54.6c-13.2 34.3-58 53-86.5 72-56 37-107.9 82.2-160 124.6l-47.2 38.3c-6.9 5.5-14.3 14.1-22.8 17.1-15.9 5.7-37.6 3-54.3 3.8-37.7 1.6-76.8 2.2-114.3 6.7-11 1.3-45.3 2-48.5-12.5-2-9.3 10.4-22 15.7-28.6 18.4-23.1 39-44.7 60-65.7 64.7-64.8 131-128 195.7-192.8 18.8-18.9 38.3-37 57.1-55.7 8-8.1 17.6-21.5 28.6-25.6m501.4 3.5c10.1-2.1 17.4 7.1 24.3 13 18 15.8 35 32.8 52.9 48.6 78 69 156 142.8 227 219 18.2 19.6 37.2 38.7 53.5 60 11 14.5 14.5 28.4-6.3 34.7-25 7.5-53 3.7-78.5 2.5-37-1.6-79.6-2.3-114.3-16.4-31-12.6-58-35.3-84.3-55.6-42.2-32.6-83.6-66.1-125.7-98.9-29-22.5-61.8-39-90-62.3-12.6-10.4-26.3-22.1-27.1-39.7-.7-15.5 3.7-32 15.7-42.5 15.7-13.8 40.7-19 60-26.1 30-11.2 61.5-29.9 92.8-36.3m1670 7.8c-5.3 5.3-13.4 10.6-12.8 18.5-19 9.7-33.5 29.5-48.6 44.3-33 32.1-65 65.7-98.6 97-130.5 121.6-255.5 249.7-381.4 375.9a331.7 331.7 0 00-48.5 57.1c-12.3 20-3.6 43.3-13.6 64.3-22.2 46.4-87.2 60.8-120.8 18.6h-1.4l-5.7 4.3-1.4-1.5 4.2-4.2-1.4-1.5a74.9 74.9 0 00-58.6 4c-11 5.9-18.8 14.4-31.4 17.6a1875.8 1875.8 0 00-210 63.3c-19.3 7.4-35.2 20.7-54.3 27.9-19.3 7.3-38.8 4.6-58.5 8.1-41.4 7.2-82.2 18-122.9 28.2-114.8 29.1-228.7 61.5-342.9 93.2-68.4 19-138.9 35.3-205.7 59.2l-1.4-4.3 7.1 1.4m1810-970l-15.7 15.7m-3812.8-10a16127 16127 0 00362.8 351.6c31.7 29.4 62.3 60.7 92.9 91.3 12.4 12.3 27.4 34.4 44.3 40l1.4 1.4-1.4 1.4-1.5 1.5-2.8-4.3m3312.8-470l2.9-4.3m-3732.9 5.7l24.3 15.7 1.5 1.4-4.3 4.3 302.8 301.5 104.3 102.9 47.2 44.2h1.4l1.4-1.4-1.4-2.9-5.7 1.4M4681.4 4183c-42.7 34.4-80.5 78.5-120 117-75.4 73.7-151.1 147-225.7 221.5-28.8 28.8-57.8 57.4-85.6 87.2-14.3 15.4-28.2 37.3-47.2 47.1-4-10 9.3-23 15.7-30 18.7-20.4 33.7-45.5 49-68.6 32.9-49.3 62.6-104.5 102.4-148.5 45.3-50.2 105.5-87.5 161.4-124.8 32.6-21.7 65.5-43.3 97.2-66.2 8.7-6.3 21.9-18.5 32.1-16.2 1.5.4-1.5-5-.7-2.8m-3624.3-2.9l2.9 5.7 2.8-2.8M4660 4197l5.7-1.4m-3621.4 1.4c82.3 63.3 178.5 112 255.7 181.7 52 47 89.8 109 128.6 167 20.5 30.6 51.5 63.7 64.3 98.5m1672.8-128.6c-12 6.4-32.2 4.3-45.7 4.3-31 0-61.9 1.4-92.9 1.4-113.8 0-227.7-1.2-341.4-1.4-36.8 0-73.3-1.2-110-2.8-5.3-.2-33.3 2-34.4-4.8-1.3-8.2 24.3-23.7 30.1-28.5 33.7-27.8 68-55 101.5-83 22.1-18.7 44-37.6 65.7-56.9 14.3-12.7 28.5-27.1 47.1-33.3 28.9-9.5 64.5-5.7 94.3-3.7 14.7 1 29.4 2 42.9 8.7 18.8 9.4 34.2 26 50 39.6 26.2 22.8 53 45 80 67 36.5 29.9 81.8 57.9 112.8 93.4m-1319.1-141c4.3-2.5 14 4.5 17.7 6.4 17.3 9.2 34.4 19 51.4 28.7 53.7 30.6 113.7 49 165.7 82 24.8 15.6 45.2 40.6 14.3 62.4-30.7 21.7-72.8 33.3-108.6 43.8-8.2 2.4-28.9 12.9-36.8 9-7.1-3.5-11.7-18.7-14.9-25.6-10.8-22.8-22.4-45.4-32.7-68.5-15.6-34.9-32-69.2-47-104.3-2.1-5-15.7-30.2-9.1-34m2007.7 1.1c.1 17.5-13.4 38.4-20.2 54.3a2451.7 2451.7 0 01-56.6 122.9c-6.4 12.8-11.8 26-18.7 38.5-2.8 5-5.6 12-11.7 13.3-13.6 2.7-30.8-7.6-42.8-12.7-30.5-12.8-66.4-16.5-94.3-34.7-11.4-7.3-27.8-21.8-23.1-37.3 4.9-16.4 27.8-24.8 41.7-31.8 40.7-20.4 82.7-38.4 122.8-60 23.4-12.7 46.3-26.6 70-38.6 10.3-5.1 21.3-12.7 32.9-13.9m-2420.4 96c4-2.9 13 5.3 16.1 7.3 15.8 10.6 31.4 21.4 47.1 32 66.2 44 131 90.5 195.8 136.7 17.1 12.3 34.5 24.5 51.4 37.1 4.6 3.4 17.5 10.2 11 17-5.8 5.8-15.2 9.2-22.4 12.8-19.8 10-51.5 28.7-74.3 25.1-11-1.7-17.4-12.8-28.6-15.6-15.9-3.8-33.3-.3-47.1-10.6-17.2-12.8-29.3-33-41-50.6-18.6-28-40.6-57.3-52.7-88.6-10.5-27.4-30.6-52-45.5-77.2-2.1-3.5-14.6-22.1-9.8-25.4m2830.2 1.1c10-.4-3.3 18.7-5 21.5-14.1 21.8-28.3 43.5-41.7 65.7-21.5 35.9-38.5 73.6-61.7 108.6-10.5 15.9-22.3 34.6-38.6 45.1-15.5 10-33 6-50 11.2-10.9 3.4-16.5 14.7-28.5 15-26 .7-57.3-17.8-80-28.8-6.9-3.4-23.3-9.5-20.3-19.7 7.7-26.3 55.1-38.2 76-51.3 61.2-38.4 119.1-81.6 178.6-122.5 16-11 32.2-22.1 48.5-32.8 6-4 15.3-11.7 22.7-12m-968.4 83c10.4-5.7 24.2-5.5 35.7-7.3 29.5-4.9 63.1-10.2 92.9-6.7 13 1.6 30.5 1.8 38.6 14 15.8 24-28.7 48.5-44.3 62.8-5.4 4.9-16.4 18.8-24.3 18-8.7-.9-19.3-13.8-25.7-19.1-18.4-15.4-37-30.5-55.7-45.5-7.8-6.2-15.7-16-25.8-17.7m-880-1.4c-4.4 9.2-15 14.8-22.8 21.1-17.9 14.2-35.7 28.5-54.3 41.7-7.1 5-19 16.6-28.6 14.2-20.6-5.3-46.6-33.4-58.6-49.9-5.4-7.4-12.2-18.6-5.2-27 11.4-13.7 38.4-9 53.8-7.5 30 3 60 6 90 6 12.2 0 25.5 2.2 37.2-1.5m65.7 2.8c13.8-6.2 39.2-1.4 54.3-1.4h624.3c15 0 37-4 51.4.9 11.8 4 23.1 16.9 32.8 24.5 23.9 18.8 48.1 37.2 71.5 56.6 7 5.9 29.1 19.5 28.9 29.5-.1 5.6-6.7 10.6-10.4 14.2-11.9 12-24.4 23.9-37.1 35-35.8 31-70.3 63.7-105.7 95.3-14.7 13.1-31 33.8-48.6 42.6-10.4 5.2-29.9 1.4-41.4 1.4h-512.9c-10.4 0-27.6 3.3-37.1-1.4-18.2-9.1-34.7-30.5-50-43.9-36-31.5-72.8-62.8-107.2-96-11.3-11.1-23-21.7-34.2-33-3.5-3.4-10.8-8.7-10.2-14.2 1.3-10.9 22.3-23.8 30.2-30.4 21.4-18 43.8-34.7 65.7-52.2 10.9-8.7 23-21.7 35.7-27.5m-370 27.9c19.2-3.5 32.3 10.5 50 14.7 18.1 4.3 36.3-2.4 54.3 1 15 2.8 27.1 12.8 38.5 22.3 6.5 5.3 31.2 19.7 31.2 28.5 0 5.1-7.7 9.6-11.2 12.4l-32.8 27c-31 25.4-60.2 52.7-90 79.4-15.6 13.9-34.3 33.6-55.7 37.6-12 2.3-21.7-2.1-32.9-5.1-8.7-2.3-22.8.6-30-3.7-7.7-4.6-12.8-14.5-17.4-22-11.5-18.7-20.7-38.6-30-58.5-7.3-15.5-23-44-17-61.4 4.4-13.5 19.9-11.4 30.1-18.3 33.3-22.4 72.6-46.7 112.9-54m1452.8.3c15.5-4.4 32 3.2 45.8 9.4 26.3 12 53.3 24 78.5 38.3 11.3 6.4 27 12.6 32 25.7 8.5 22.5-11.3 58.3-20 78.6-7 16.3-15.4 32.4-25.3 47.1-3.7 5.4-8.5 13.9-15.3 15.7-6.2 1.7-13.5-.5-20 .7-13.5 2.4-25.7 10.4-40 7.1-16.8-3.8-32.4-18.3-45.7-28.6a1177 1177 0 01-90-77.7 285.7 285.7 0 00-40-32.4c-5-3.3-14.4-7.5-13.3-14.8 1.4-9.6 15.1-18.8 22-24.7 14-12.3 29.1-26.4 48.5-29.2 15.2-2.1 30.4 3 45.7.4 14-2.5 24-11.8 37.1-15.6m-2128.5 70.5c33.3 33.3 67.5 70.5 91.4 111.5l4.3-2.9 1.4 1.4c-1.2 16-5 31.2-1 47.2 6.9 25.9 43.5 55.3 71 52.4 27.2-3 38.2-28.6 62.9-35.4 18.3-5 38.2 7.5 55.7 11.5l1.4 1.5-4.3 4.3c3.7.5 8.7-.7 4.3-4.3m-288.6-185.7l40 40m447.2-19.4c15-2.1 22.2 9.3 29.4 20.8 15.2 24.3 25.5 51.9 35.7 78.6 2.6 6.9 17 34.2 4.8 37.2-10.1 2.5-26.2-9-34.2-14a853 853 0 01-82.9-60.4c-6.4-5.1-32-21.9-29.5-31.3 1.7-6.2 12.9-10.1 18.1-12.5a216.8 216.8 0 0158.6-18.4m1837.1 3.7c18.2-9.3 53.2 8.3 70 15 6.9 2.9 20.1 8.1 17 17.8-4 12.8-22.5 23.3-32.7 30.9-30.7 23-65.2 53.4-101.4 67-21.7 8.2-10.8-19.5-7-29.3 9.7-25.9 22-51.7 35.6-75.7 4.7-8.5 9.5-21 18.5-25.7m-2282.8 14.2c9 4.3 15 12.7 21.6 20 12.4 13.7 30.7 29.6 34 48.6m1673 85.7c7.2-15.5 27.2-27.8 40-39 30.4-26.7 60.3-54 91.4-80.1 10-8.5 30.5-32.8 44.3-32.6 11.2.1 24 11.5 32.8 17.4 24.9 16.7 49 34.8 72.9 52.7 24 18 50 34.9 71.4 56 6.2 6 19.6 17.3 19 27-.5 9-13.7 10.2-20.4 11-21.8 2.8-43.8 1.9-65.7 1.9-64.6 0-130-4-194.3-8.4-29-2-63.5 2.4-91.5-5.9m-892.8-150.5c13.7-3.7 30.5 15.8 40 23.7 33.6 28 65.6 58.1 97.1 88.3 9.5 9.1 18.4 18.7 27.2 28.5 3 3.3 9.3 9.8 2.6 12.8-7.2 3.3-17.8 1.5-25.5 1.5-15.9 0-32.7.5-48.6 1.6-66.7 4.5-134.4 4.1-201.4 4.1-20.6 0-41-.5-61.4-3-6.8-.7-19.1-2-22.8-8.7-3-5.6 2.2-11.6 5.8-15.4 9.4-9.9 21.6-17.3 32.7-25.1 30.8-21.8 61.9-43 91.4-66.4 18-14.2 40.3-35.9 62.9-41.9m-817.2 13.4l-4.2 4.3m2241.4 121.4c6.7-13.4 26.5-23.4 38.6-31.8a1241 1241 0 0195.7-62.3c10.4-6 26.4-18.6 38.5-19.3 13.3-.9 33.6 13.3 45.8 18.5a435.6 435.6 0 0154.2 26.6c4.5 2.7 15.5 7.6 15.5 13.9 0 5.8-11.3 7.9-15.5 9-16.8 4.7-34.3 6.1-51.4 9.4-42.7 8.2-85.8 14.6-128.6 22.3-31.1 5.6-62.6 13.2-94.2 15.1m-1761.5-2.8c-21.4 6.3-50-3-71.4-6.8-52.4-9.2-104.6-19.7-157.1-28.1-17.3-2.8-34.5-4.8-51.5-9.3-4.2-1-15.3-2.8-15.2-8.8.1-7.1 11.5-12 16.7-14.8 18.3-10.2 38.8-17.1 58.5-24.1l40-13.9c5.7-1.9 12.5-6 18.6-5 13.6 2.3 28.8 18 40 25.5 28.6 19.1 57 38.5 85.7 57.6 11 7.4 29.4 15.9 35.7 27.7m-441.4-70l4.3 7.1m2504.3 62.9l1.4 1.4m-2404.3 14.3l32.9-11 52.8 5.3m2245.7 1.4l65.8-7.2m-2301.5 2.9l2.9 2.9-5.7 2.8M4040 4840h2.9m-72.9 1.4l2.9 2.9m-2331.5-1.4l4.3 4.2m-5.7-1.4l2.9 2.9m92.8-2.9c28.1 3.8 55.7 15.8 82.9 23.7 51.4 15 103 29.8 152.8 49.7 18 7.2 33.1 19.6 51.5 25.7 30.2 10 62 2.5 92.8 5.4 26.1 2.5 47.7 15.4 72.9 21.2l1.4 1.5-4.3 4.2c3.7.6 8.7-.6 4.3-4.2m1362.9-85.8c-13.2 10.6-32.8 14.8-48.6 20-33.6 11.2-67.7 21-101.4 31.5-113 35.1-225.4 72.1-337.2 111-36.8 12.7-72.5 32.1-110 42-12.2 3.2-30.5 11-41.4 2.7a3004.9 3004.9 0 00211.4-178.7c7-6.4 15.4-17.2 24.3-20.5 7.8-2.8 19-.8 27.1-.8 17.5-.1 35.4-.7 52.9-1.5 58-2.5 116.3-5.7 174.3-5.7 28.9 0 59.8 1.1 88.6-1.6 16.5-1.6 45-6.4 60 1.6m-1387.2 5.8c9.1-5 21.3-2.9 31.4-2.9h64.3c69 0 138.5-2 207.2 2.7 23.8 1.7 54.5-6 77.1 2.6 12 4.6 23.1 18 32.9 26.2 22.9 19.2 45.5 38.8 70 56a785.6 785.6 0 01101.4 86.8c5 5 31 25.3 26.8 33.4-3.4 6.6-29.9-3.6-35.4-5-36.3-10-72.5-23.1-107.1-38-107-46.2-219.6-77.9-330-114.7-31.8-10.6-64-20.4-95.7-31-13.8-4.5-31.3-7.3-42.9-16.1m930 0c-5 10.3-17.2 18.2-25.7 26-18.7 16.8-37.5 33.7-55.7 51.2-35.3 33.7-63.8 82.4-111.4 100.7-18.2 7-37 4.8-55.8 6.6-14.5 1.4-42.3 6.4-55.7-.3-13.2-6.6-25.3-22.5-35.7-32.8-22.5-22.5-45.2-45.3-68.6-67-20-18.7-39.2-38-58.5-57.3-8.3-8.3-20.8-16.5-25.7-27.1l48.5-1.5h407.2l37.1 1.5m-938.6 0h8.6m8.6 34.2c-11.8 6.3-40.4-1-47.2-12.8 14.3-4.2 35.8 4 47.2 12.8m1400-11.4c-11.5 8.8-32.8 17.1-47.2 12.9 6.7-11.8 35.5-19.1 47.2-12.9m-1491.4 35.7l35.7 9.9 67.1 15.8m8.6-2.8l14.3 4.3 1.4 1.4c-5.4 2.5-10.7 2.6-11.4-4.3m4.3 1.4v4.3m-10-1.4h4.2m14.3 2.9l97.2 26.5 157.1 42.9 141.4 39.3 127.2 37 1.4-1.5 1.4-1.4-7.1-2.8m182.9-25.8l4.2 2.9m-178.5 28.6c11.8 1.7 28.7 6.2 36.6 15.7 6.9 8.5 5.3 21.5 9.8 31.4a65.3 65.3 0 0055 37c24.4 1.7 56.7-9.2 71.1-29.8 7-10 7.7-45.5 21.8-42.9l1.4-1.4-5.7-2.9m7.1 2.9l10-2.9 1.4-1.4-4.2-4.3 1.4-1.4H2950m-8.6 7.1l-4.3-4.3 5.8-1.4m-5.8 7.1l-4.2-4.2 4.2-1.5m-5.7 1.5h1.5m14.2 1.4h2.9m-20 4.3l-4.3 7.1"/>
</svg>